<svg xmlns="http://www.w3.org/2000/svg" viewBox="0 0 1881.75 783.92"><defs><style>.a{fill:#0d0d0c;}.b{fill:#10100f;}.c{fill:#b5a999;}.d{fill:#101010;}.e{fill:#141414;}.f{fill:#111110;}.g{fill:#151515;}.h{fill:#141413;}.i{fill:#141313;}.j{fill:#171615;}.k{fill:#121212;}.l{fill:#2a2927;}.m{fill:#0b090a;}.n{fill:#b9afa4;}.o{fill:#363534;}.p{fill:#a8a8a7;}.q{fill:#444340;}.r{fill:#4d4843;}.s{fill:#a59e95;}.t{fill:#a49c93;}.u{fill:#454543;}.v{fill:#444443;}.w{fill:#b9b0a4;}.x{fill:#5c5b59;}.y{fill:#4b4a47;}.z{fill:#a99e95;}.aa{fill:#8f8980;}.ab{fill:#a9a097;}.ac{fill:#50504e;}.ad{fill:#9e9e9d;}.ae{fill:#7c7c7c;}.af{fill:#4d4d4c;}.ag{fill:#656565;}.ah{fill:#4b4b4b;}.ai{fill:#494847;}.aj{fill:#bab0a3;}.ak{fill:#a89e94;}.al{fill:#414140;}.am{fill:#3d3c3a;}.an{fill:#a9a296;}.ao{fill:#b5b5b5;}.ap{fill:#484845;}.aq{fill:#353433;}.ar{fill:#bbafa3;}.as{fill:#696867;}.at{fill:#7f7f7d;}.au{fill:#232323;}.av{fill:#454643;}.aw{fill:#42413f;}.ax{fill:#2f2f2e;}.ay{fill:#4b4b48;}.az{fill:#a59a92;}.ba{fill:#51524f;}.bb{fill:#dcdcd7;}.bc{fill:#dcddd8;}.bd{fill:#deddd9;}.be{fill:#dbdcd6;}</style></defs><path class="a" d="M650.25,605.31l3.3.36c5.3.65,9.93,1.26,14.45,4.33,1.13,3.63,1.2,5.39,0,9l3.5-.12c7.23,0,12.72,1.61,18.5,6.12,1.57,3.15,1.35,5.52,1,9-3.38,5.92-8.37,7.94-14.45,10.7-2.67,1-2.67,1-3.55,3.3-.23,2.55-.42,5.07-.56,7.62l-.13,2.15c-.11,1.74-.21,3.49-.31,5.23l2-1c7.07-.57,7.07-.57,10.56,1.56C686,666,686,666,686,669.62c-1,3.38-1,3.38-2.77,4.52a43.38,43.38,0,0,1-7,2l-2.42.51L672,677v7l3.66,1.14,4.84,1.55,2.4.74c8.23,2.66,15.08,6.08,19.67,13.63,4.9,10.05,7.61,21,10.12,31.88l.57,2.48c3.78,17.17,5.49,34.41,6.82,51.91q.45,6,.94,12.09,1.34,17,2.61,33.89c3,38.66,6,77.26,11.68,115.63a183.54,183.54,0,0,1,2.13,25.44l0,2.66c-.1,7.09-1.88,13.17-6.72,18.63-6,4.6-15.42,5.83-22.68,7.66-19,4.8-37.67,10.71-56.36,16.59-16.69,5.23-33.38,10.19-50.52,13.7l-3,.63a423,423,0,0,1-44.44,6.1c-3.67.05-3.67.05-6.72,1.65a328.2,328.2,0,0,0,.45,39.67l.14,2.23.13,2.28c1.65,27.49,1.48,55,1.36,82.48-.42,59.86-.42,59.86,2.86,119.59l.51,6.1c1.09,12.89,2.32,25.77,3.55,38.65H451c-.54-8-1.07-15.92-1.62-24.12q-1.8-26.39-3.84-52.74c-.06-.8-.13-1.6-.19-2.42-.26-3.25-.51-6.51-.77-9.76-2.2-28-4.25-56-5.89-84l-.13-2.1q-.72-12.33-1.39-24.65l-.33-6.15c-1-17-1-34-1-51v-2.32c0-31.1.36-62.2.83-93.3q.11-7.62.2-15.23.12-9.06.28-18.12l.09-6.74c0-3.1.09-6.2.15-9.3l0-2.72c.29-11,5.69-19.9,13.51-27.48,4.22-3.83,8.63-7.39,13.11-10.91l2.45-1.93a215.64,215.64,0,0,1,21.73-14l2.54-1.48c.75-.44,1.5-.88,2.28-1.32l2-1.32,1.83-1.16c1.64-2.58,1-4.57.54-7.48a125.39,125.39,0,0,1-1-13.43c-.12-2.18-.23-4.37-.34-6.55-.06-1.14-.12-2.27-.18-3.44-.81-34.47-.81-34.47-7.87-67.94l-2.56,2.44c-3.4,2.79-6,3.64-10.44,3.56a26.9,26.9,0,0,1-11-8,39,39,0,0,1-2.19-5.94c-.32-1-.64-2-1-3.09-3.17-11.34-2.64-22.13,2.17-33,6.84-11.38,17.41-18,29.61-22.39,3.58-1.4,5.23-2.37,7.35-5.64a17,17,0,0,0,1-8l-1.83.18-2.42.13-2.39.18C492,690,492,690,489.8,688.2c-2.65-4.71-2.87-9.38-3.36-14.7-.64-8.76-.64-8.76-4.44-16.5-.19-2.44-.19-2.44,1-5,6.7-6.45,15.78-10.41,23.94-14.69l2.28-1.2C554.24,612.48,599.15,599.67,650.25,605.31ZM523.5,643.81l-2.08,1.1A57,57,0,0,0,511,652c81.48,2.52,81.48,2.52,158-19l-1.88-.88A11.6,11.6,0,0,1,663,629a69.1,69.1,0,0,1-1-8l-3.56-.94-2-.52C610.76,609.49,563.86,622.63,523.5,643.81Zm121.12,9.38c-19.3,4.61-38.89,6.45-58.62,8.1l-2,.17c-6.78.56-13.55,1.12-20.33,1.64l-5.85.46c-2.42.19-4.84.38-7.27.55l-3.28.27-2.87.22c-2.65.28-2.65.28-5.39,2.4a16.33,16.33,0,0,0-.19,5.12l.08,2.76L539,677c2.66,1.33,4.69,1.14,7.66,1.16l3.61,0h5.93l10.56,0c2.89,0,5.77,0,8.65,0,22,.31,22,.31,43.59-3.28l3.22-.74c3-.7,5.94-1.44,8.9-2.2l3.1-.79L643,669l2.41-.62c2-.51,4-1,6-1.57l3.21-.85c2.73-.82,2.73-.82,4.41-4a24.78,24.78,0,0,0,.12-5.19l0-2.73L659,652C653.89,650.3,649.64,651.88,644.62,653.19ZM500,666v11l2.25-2.44C505,672,505,672,507,670.88c3.31.2,4.79,2.8,7,5.12,3.54,2.14,4.69,2.07,8.81,1.12L526,676V666Zm144.11,15-2.63.66-8.29,2.13c-24.18,6.27-46.19,7.4-71.14,7.07-3.91,0-7.82-.07-11.73-.1l-3.66-.07-3.36,0-3,0L538,691c-2,3-2.44,4.68-3.12,8.19-3.78,15.58-12.67,29-24.95,39.18-5.7,4.71-5.7,4.71-9.93,10.63-.4,7.5.84,14.34,2.25,21.69,3.3,18,5,36.12,6.75,54.31l1.3-1.12c23.55-20.28,47-33.65,79-32.12a73,73,0,0,1,15.36,3.46c5.74,1.35,9.88-.29,15.12-2.66,18.6-7.86,37.72-5.25,56.13,2,3.68,1.55,4.8,2,7.06,5.44a19.47,19.47,0,0,1,0,6c-3,2-3,2-5.88,1.88-3.2-.21-3.2-.21-5.23,2-3.87,2.85-7.55,3.48-12.2,4.38l-2.54.52c-2,.42-4.1.83-6.15,1.23l.25,3.25c-.25,3.75-.25,3.75-1.83,5.87L647,827l-3.14,2.44C633.28,837.16,623.6,843.28,610,842c-6.79-2.12-9.49-5.15-12.75-11.31L596,828a65.49,65.49,0,0,0-10.06,4.83l-2.9,1.66-3,1.76c-8.17,4.67-16.27,9.19-25,12.75l-3.65,1.57c-5.05,1.86-10.14,2.32-15.47,2.74l-3.06.26A75.78,75.78,0,0,1,510,852l1,9c3.9,2.16,6.4,2,10.65.8l2.16-.65,2.29-.65c1.61-.46,3.22-.92,4.83-1.4,4.2-1.22,8.41-2.38,12.63-3.55l2.5-.69c27.81-7.62,68-15.5,94.48-1.3,1.86,1.09,3.67,2.25,5.46,3.44l.59-2.16c3.15-10.08,8.1-14.26,17.29-19.09,9.34-4.39,16.77-6.15,27.12-5.75v10l-3.08.66c-15.3,3.08-15.3,3.08-26.92,12.34,15.42.65,24.83-3.39,37.66-11.73C701,840,701,840,704.19,840.12,707,841,707,841,709,844a57.19,57.19,0,0,1-1,7l-2.14.79a61.26,61.26,0,0,0-8.61,4.59l-2.92,1.77c-2.47,1.63-2.47,1.63-3.16,4.08L691,864l2,1a21.5,21.5,0,0,1-1,15c-5.75,1-5.75,1-8,1a9.83,9.83,0,0,0,1,4c5.34,3.09,12,3.52,18,4v10l5.44-1.44,3.06-.81c2.42-.51,2.42-.51,3.5-1.75,0-1.77-.09-3.53-.2-5.3l-.22-3.52-.27-3.93-.13-2c-.92-13.88-2.18-27.73-3.45-41.58-1.12-12.23-2.1-24.44-2.79-36.7-.72-51.34-.72-51.34-19.69-96.78-4.93-4.06-10.16-5.57-16.25-7.16-8.46-2.71-8.46-2.71-11-6a46.56,46.56,0,0,1-1.69-6.19l-.76-3.29L658,680C653,678.39,649,679.72,644.11,681ZM514,690v10l8-1a18.48,18.48,0,0,0,2-9Zm-5.44,27.81-2.37,1.58c-4.18,3.05-4.18,3.05-5.88,7.8L500,730c6.17-3.77,12-8.27,15-15C512.19,715,510.88,716.25,508.56,717.81ZM480,725c-6.13,7.42-8.42,13.5-8.27,23.2A40.17,40.17,0,0,0,475,760h4a16,16,0,0,0,3.31-4.69l1.62-2.63c1.27-3.19,1.28-4.49.07-7.68L482,743.1c-1.95-2.1-1.95-2.1-2.34-5.23l.14-3.43c0-1.14.07-2.27.11-3.44l.14-3Zm144,80c11.23.22,21.91,0,33-2l-1-2C646.24,798,631.5,796.89,624,805ZM523.67,827.38A37.82,37.82,0,0,0,516,837a14.84,14.84,0,0,0,1,4c22.6,2.93,41.22-5.16,60-17,2.36-2.36,2.22-3.06,2.56-6.25.61-3.14,1.09-4.44,3.5-6.61,2.27-1.47,4.59-2.8,6.94-4.14l2-2C568.23,800.77,541.09,811.41,523.67,827.38ZM613,826c-1.48,2-1.48,2-2,4,1.23,1.44,1.23,1.44,4.94,1.44,5.92,0,10.52-2.79,15.06-6.44v-2C624.28,822.67,618.88,822.5,613,826Zm41,39,.36,1.83c1.06,6.57,1.06,6.57-1.05,9.61A37.7,37.7,0,0,1,647,880a25.81,25.81,0,0,0,2,6c.6,6-.79,10.07-4,15-1,1-2,2-3,3l1.43,1.43c5,5.35,8.15,10.2,8.73,17.64-.29,5.91-3.47,9.56-7.16,13.93l-1.28,2.06c-2.42,2.73-5,3.47-8.41,4.69l-3.57,1.3L629,946c2.13,2.16,4.25,4.22,6.56,6.19a21.18,21.18,0,0,1,5.5,14.22A20.87,20.87,0,0,1,637,978c-8.63,6.24-19,7.8-29.18,9.58l-4.89.9q-6.37,1.17-12.77,2.31-10.24,1.83-20.49,3.72c-2.38.44-4.75.86-7.13,1.28l-4.37.79-3.84.69A41.87,41.87,0,0,0,546,1000c-.06,4.12-.09,8.25-.12,12.38l-.06,3.56,0,3.4,0,3.14c0,2.69,0,2.69,2.23,4.52,42.7,1.71,87.16-15.29,127.19-28l8.37-2.64,4.11-1.3c8.88-2.8,17.76-5.46,26.85-7.48,4.34-1,6.76-2.07,9.48-5.62,2.36-14.42-1.49-30.53-3.44-44.81q-.49-3.74-1-7.47l-1.82-13.58-.37-2.72A60.61,60.61,0,0,0,716,907q-3.76,1.88-7.5,3.8A155.82,155.82,0,0,1,685,921v2l2.08.55,2.73.76,2.71.74a11.57,11.57,0,0,1,5.48,4l-2,7a137.79,137.79,0,0,1-20.69-1.38l-3.37-.38-3.26-.39-2.94-.35A33.49,33.49,0,0,1,658,931a23.82,23.82,0,0,1-1-7c5.32-8.08,17.59-11.35,26.17-14.84,3.34-1.37,6.63-2.83,9.92-4.31,2.28-1,4.58-2,6.91-2.85v-1l-2.6-.33c-8.67-1.2-15.9-2.35-22.4-8.67-4.5-7.07-4.12-14.69-3.94-22.78.2-2.19.2-2.19-1.06-3.22-2.69-.24-5.36-.42-8.06-.56l-2.3-.13Z" transform="translate(-53.6 -549.08)"/><path class="b" d="M1166.5,692.25l2.21.33c10.09,1.76,17.74,7,24.29,14.8a18.68,18.68,0,0,1,1,11.62c-4,7.08-11.17,11-18,15l1,7,2.65-1.36c28.4-14.15,63-17.5,94.35-16.64l2.13.06c10,.41,17,4.22,25.1,9.77a30.72,30.72,0,0,0,5,2.88c10.11,6,13.13,15.74,17.3,26.26,4,10,9,20.5,19.41,25.09a21.23,21.23,0,0,0,15.16-1c10.28-5.86,15.51-16,20.9-26.09l1.25-2.28c1.08-2.48.36-4.11-.25-6.72-.55-6.33-.55-6.33,1.62-9,3.29-1.38,5-1,8.38,0,3.38,1.5,3.38,1.5,6,4,2.18,7.3-1.89,14.58-5,21l-1.32,2.75C1384.39,780.11,1377.23,791,1367,797l-1.93,1.24c-7,3.85-15.31,4-23.07,2.76-13-3.87-21.53-14.13-28.2-25.42a85.39,85.39,0,0,1-4.92-12C1304.62,751.68,1298,746.86,1287,741a53.7,53.7,0,0,0-9-3l-2.88-.69c-25.5-2.55-70.94.13-91.84,16.87-2.93,3.63-2.69,5.36-2.34,9.94.33,7.6-.51,14.45-5.3,20.63-3.53,3.34-6.89,4.17-11.64,4.25-3.38-.5-6.68-1.19-10-2l-.75,1.56c-1.31,2.55-2.73,5-4.17,7.51-11.19,19.48-18.92,39.84-26.34,61-1.44,4.12-2.91,8.23-4.38,12.33-5.13,14.34-10.23,28.67-14.63,43.26l-.8,2.64c-1.25,4.16-2.48,8.31-3.67,12.48a117.81,117.81,0,0,1-9.61,23.94A28.51,28.51,0,0,0,1086,963c25.13,9.86,51.59,12,78.34,13.27,18.26.87,18.26.87,26.66,6.73q2.05-12.13,4.1-24.26.95-5.64,1.9-11.28c3.52-20.76,6.61-41.53,9.25-62.43q.38-3,.77-6.06l.47-3.66c.82-5.33,1.77-10.27,5.32-14.43,3.07-1.23,5-.77,8.19.12,2,2,2,2,2.21,5.68a58.42,58.42,0,0,1-1.59,11.38,139.83,139.83,0,0,0-2.37,19.13,254,254,0,0,1-4.56,30.81l-.47,2.4-.47,2.4c-.32,1.59-.63,3.19-.94,4.79l-.47,2.4c-1.52,7.81-2.84,15.65-4.09,23.51l-.56,3.51q-.87,5.49-1.69,11l-.34,2.28c-2,13.26-3.62,26.54-5.17,39.85-5.3,45.71-5.3,45.71-9.62,66.37a45.3,45.3,0,0,0-1.06,10.06l0,2.51c0,1.94,0,1.94,1.17,2.93a21.57,21.57,0,0,1,0,7c-1.64,1.69-3.31,3.35-5,5-3.37,8.33-4.77,17.19-6.38,26l-.45,2.49c-3.61,19.73-6,39.58-8.17,59.51-.18,1.6-.36,3.2-.53,4.81l-.27,2.35q-.5,4.58-1,9.13l-.48,4.38c-1.19,10.65-2.66,21.23-4.48,31.79l-.49,2.81-.43,2.42a48.22,48.22,0,0,0-.3,7.31q6.64,1.71,13.32,3.34l5.55,1.37c40.94,10.11,81.89,12.24,123.87,12.68,22.55.24,45.08.61,67.61,1.53q32.55,1.33,65.08,1.38l6.47,0c16.21.11,32-.4,48-3.07a32.75,32.75,0,0,1,6.07-.27l-.76-1.79c-2.47-6.39-2.47-6.39-1.36-10.27,2.12-1.94,2.12-1.94,5.68-2.32,3.44.38,3.44.38,5.44,1.38-.16-.58-.32-1.15-.48-1.75a33.65,33.65,0,0,1-.81-6.32l-.12-2.43c0-.88-.08-1.75-.11-2.65l-.14-2.81c-.09-2-.19-4-.28-6.07-.15-3.25-.3-6.49-.46-9.74q-.57-12.15-1.13-24.3c-2.09-45-5-89.79-9.73-134.62q-.62-5.85-1.21-11.72-.58-5.71-1.19-11.43c-.18-1.79-.37-3.59-.55-5.38l-.78-7.44c-.08-.71-.15-1.43-.22-2.17-.4-3.7-1-7.36-1.66-11l-.43-2.2c-1.23-3.44-3.8-4.86-6.7-7-1-3-1-3-.26-4.79,3.15-5.1,3.15-5.1,4.26-6.21.62-8.43-.48-16.87-1.43-25.23l-.45-4.09q-.46-4.26-.95-8.54c-.4-3.57-.79-7.14-1.19-10.71-1.57-14.26-3.17-28.52-5.07-42.75-2.74-21.07-2.74-21.07.43-25.58,2.57-1.71,4.65-1.41,7.66-1.1,3,2,3,2,3.69,4.23.14.9.28,1.8.42,2.73.23,1.49.23,1.49.47,3,.63,4.57,1.18,9.13,1.66,13.71.16,1.51.16,1.51.32,3,.35,3.28.7,6.55,1,9.83q.38,3.42.73,6.86.76,7.17,1.52,14.33l2,18.39,1.86,17.54.36,3.39c.34,3.15.67,6.29,1,9.44.1.94.2,1.88.3,2.85l.28,2.58.23,2.26a27.41,27.41,0,0,1,.17,3.82l1.93-.41A563.74,563.74,0,0,1,1570,1001q-4.87-25.15-10.75-50.06l-.79-3.35c-3.74-15.85-7.79-31.55-12.34-47.2-2-7-3.92-14.11-5.77-21.2-7.61-29.17-15.57-58.3-24.41-87.13l-1-3.32A144.49,144.49,0,0,0,1507,769l-1.61,1.77c-4.21,4.55-8,8.39-14.39,9.23-6.41-.28-10.4-2.5-15-7l-1.48-1.44q-1.79-1.75-3.52-3.56l-2.62,1c-5,1.47-7.86,1.82-12.5-.69a26,26,0,0,1-9.17-13.35,48.42,48.42,0,0,0-2.71-6l-2.23,1.06-3,1.38-2.92,1.37c-7.64,3.14-17,3.7-24.77.63A21.37,21.37,0,0,1,1400,741c-1-9.47.91-17.39,6.81-24.94,4.31-4.55,8.94-6.19,15.13-6.5A22,22,0,0,1,1435,714c2.46,3.69,2.39,5.63,2,10-1.12,1.94-1.12,1.94-3,3a15.93,15.93,0,0,1-6,0l-1.94-1.56c-2.12-1.75-2.12-1.75-5.56-1.63-3.72,1.27-4.22,1.59-6.06,4.81-1.42,3.37-1.42,4.51-.88,8.32L1415,740c6.92,2.31,13,1.13,19.59-1.71a42.11,42.11,0,0,0,6.6-4.48c3.53-2.8,6.17-4,10.81-3.81,3.6,2.83,4.67,5.28,5.62,9.69l.73,3.19q.62,2.93,1.17,5.87c.41,2.1.94,4.18,1.48,6.25l3,1,1.24-2.55,1.64-3.33,1.61-3.3A13.62,13.62,0,0,1,1472,742c3.11-.34,5.24-.36,8.09,1,2.91,3.06,3,6.36,3.6,10.45.23,1.52.46,3,.7,4.56.09.67.19,1.34.28,2,.34,2,.81,4,1.33,6h7a90.5,90.5,0,0,0,5.1-12.64c.9-2.36.9-2.36,1.9-3.36,5.23-.42,5.23-.42,8,0a24.86,24.86,0,0,1,3,4l3,1c3.58,1.19,4.07,1.83,6,5,1.17,2.79,2.11,5.65,3,8.52.28.86.57,1.73.87,2.62q1.42,4.33,2.83,8.67l1,3.07c7.19,22.16,13.3,44.58,19.3,67.09q3.59,13.47,7.32,26.9c.74,2.68,1.48,5.37,2.23,8l.55,2c8.48,30.67,16.86,61.36,23.5,92.49l.93,4.29c1.93,8.82,3.94,18.27,2.42,27.29-2.1,3-3.32,3.86-6.93,4.59l-3.37.13-3.71.2-3.87.14c-2.51.11-5,.22-7.55.35l-3.38.13A24.45,24.45,0,0,0,1546,1020c-.53,9.31.93,18.19,2.39,27.34,4.67,29.59,6.63,59,7.95,88.92,2.61,59,9.86,117,19.46,175.21l.64,3.91c.4,2.43.81,4.86,1.21,7.29.18,1.08.36,2.15.54,3.25.24,1.41.24,1.41.48,2.84a19.44,19.44,0,0,1,.33,4.24h-14c-4.5-27.34-8.93-54.69-12.81-82.12l-.41-2.84c-5-34.9-7.6-69.78-9.28-105-1.36-28.47-3.18-56.75-6.5-85.06l-.39-3.34q-.85-7.2-1.88-14.39c-.31-2.16-.6-4.31-.88-6.47l-.6-4.22-.51-3.65c-.76-3-1.12-4.28-3.74-5.93a11.24,11.24,0,0,0-4.53.29l-2.65.42-2.76.48-2.75.42c-5.9.94-5.9.94-11.31,3.39-1.23,2.45-1,3.58-.67,6.29.1.91.2,1.81.31,2.75q.77,6.24,1.57,12.47,8.18,64.63,11.45,129.69.46,9.27.95,18.55,1,18.6,1.9,37.19c.18,3.4.35,6.81.53,10.21q.4,8.17.82,16.34.15,3,.31,6.06.49,9.72.83,19.45c0,1,.07,2,.11,3,.09,3,.15,6.07.2,9.11,0,.93.06,1.86.09,2.82.06,6.39.06,6.39-2.26,9.61a9.27,9.27,0,0,1-4.64,2c-2.5-.56-2.5-.56-4.62-2.56a49.71,49.71,0,0,1-4.88-11c-5.83.53-11.6,1.2-17.38,2.1-27.68,4.29-55.66,3.08-83.56,2q-56.14-2.2-112.28-2.13l-14.57,0-28.21,0,1,1a21.6,21.6,0,0,1,0,7l-2.57,1.77L1246,1311a18.13,18.13,0,0,0,.69,7.31A69.65,69.65,0,0,1,1248,1333h-13a338.74,338.74,0,0,1-4-38l-2.52-.33a425.67,425.67,0,0,1-47.67-8.67l-3.87-1c-22.08-5.73-22.08-5.73-27.4-10-2.42-4.76-1.37-8.88-.54-14l.51-3.28c.59-3.65,1.21-7.28,1.84-10.92,2.48-14.8,4.17-29.62,5.68-44.55,2.65-26.32,6-52.23,11.68-78.11l.84-3.87c.53-2.36,1.07-4.73,1.62-7.09,2.43-10.64,2-20.19.52-30.93-1.23-9.26-2.25-18.52-3.13-27.81-.24-2.6-.49-5.2-.73-7.79l-.19-2c-.89-9.35-1.86-18.7-2.83-28l-.27-2.66q-.76-7.46-1.54-14.9l-2.37-.78c-2.91-1.35-3.35-2-4.7-4.77-1.66-2.5-2.46-3.32-5.39-4.13-3.15-.29-6.26-.39-9.42-.44A180,180,0,0,1,1104,983l-3.33-.85q-5.13-1.32-10.23-2.71l-3.19-.85c-12.35-3.47-12.35-3.47-15.38-8.45a19.62,19.62,0,0,1-.27-13.12c.85-2,1.79-3.95,2.78-5.9,12.24-26,20.23-54,29-81.37,8.85-27.63,18.94-55.62,33.64-80.75l-3.69,1.5c-6,2.06-12,1.76-18.31,1.5l-.75,3.75c-1,3.79-1.9,6-5.25,8.25-4.21,1.29-7,1.28-11-.5-4.76-2.66-9.53-6.56-12-11.5-.57-7-.57-7,1.62-10.94,2.84-2.46,4.72-2.58,8.38-3.06l-.91-2.45-1.15-3.24-1.16-3.2A12,12,0,0,1,1093,761c2.64-2.2,4.17-3,7.62-3,3.72,1.56,4.67,4.28,6.17,7.9A23.23,23.23,0,0,0,1118,778c4.31,1.26,6.19,1.32,10.38-.31,2.7-1.43,2.7-1.43,3.62-3.69.45-6.12-.66-11.19-2.34-17.07A29.14,29.14,0,0,1,1129,748c1.56-2.44,1.56-2.44,4-4a19,19,0,0,1,7,1,22.86,22.86,0,0,1,3.94,5.88c.67,1.18,1.34,2.37,2,3.55l1,1.82c4.22,7.25,9.16,13.87,16,18.75h4c.36-14.34-.92-27.17-6-40.7a29.08,29.08,0,0,1-2-13.3c1.12-1.94,1.12-1.94,3-3a30.89,30.89,0,0,1,9.62.75c3.42.62,3.42.62,5.76-1.5,1.78-2.24,1.78-2.24,2.62-5.25l-1.76-.87q-2.09-1.05-4.13-2.17l-1.92-1-1.9-1c-13.82-5.44-32-2-45.31,3.31-26.49,13.1-43.77,46.35-53.1,73.17a182.55,182.55,0,0,0-9.12,56.29l0,3.4c-.24,35.78,1.56,71.25,4.27,106.93.14,1.8.27,3.61.41,5.41l1.11,14.66q.36,4.59.7,9.17,1,13.59,2.09,27.17c3,38,5.09,75.94,5,114.06q0,3.43,0,6.87c-.12,58.28-4.53,116.14-9.59,174.18q-1,11.2-1.9,22.42l-.24,2.92L1064,1333h-13q1.73-32.61,4.35-65.12,1.73-21.24,3.31-42.47.31-4.12.64-8.25c2.29-29.62,3-59.13,3-88.82,0-1.78,0-3.57,0-5.36,0-25.72-.71-51.31-2.32-77l-.13-2.13q-.78-12.21-1.67-24.41c-.27-3.64-.53-7.29-.79-10.93l-.51-7.07-.23-3.24-.22-3-.19-2.61a37.57,37.57,0,0,0-.75-5.43,107.91,107.91,0,0,1-1.07-10.92l-.14-2.28c-.16-2.48-.31-5-.46-7.45-.1-1.74-.21-3.49-.32-5.23q-.43-6.9-.85-13.79t-.85-13.85c-1-16.81-1-16.81-1.54-25.11-.19-3-.37-6-.57-9-.55-8.77-.88-17.51-.91-26.29l0-3.73q0-3.87,0-7.74c0-3.87,0-7.74-.07-11.61-.21-48,11.84-93.77,44.31-130.16l1.9-2.27C1113.78,695.22,1138,687.74,1166.5,692.25ZM1175,991c2.26,21.67,4.55,43.35,7,65h1q1.38-11.19,2.74-22.38.63-5.19,1.27-10.39.73-6,1.46-12l.46-3.75.43-3.51.37-3.09A80.47,80.47,0,0,0,1190,992l-3.75.62c-3.46.45-5.25.27-8.25-1.62Z" transform="translate(-53.6 -549.08)"/><path class="c" d="M604.08,858.7l4.71-.06c10.21-.19,19.44-.17,27.83,6.42C638,867,638,867,638,870l-2,.32-9.14,1.49-3.12.5a388.17,388.17,0,0,0-42.31,9.77L573,884.44c-18.75,5-18.75,5-37,11.56.5,4.46.5,4.46,1,9,8.26.54,14.58-.78,22.25-3.75l6.08-2.21,2.95-1.08a164.61,164.61,0,0,1,56.28-9h3.64l8.8,0c-.58,3.06-.82,3.85-3.27,6-8.54,5.73-16.53,8.54-26.48,10.88-21.53,5-21.53,5-40.25,16.12-1.47,3.06-1.47,3.06-1,6,1.6,3.15,1.6,3.15,4,3.44,7.33,0,13.3-1.88,20.1-4.5l3.32-1.23c4.9-1.82,9.74-3.72,14.5-5.87,9.27-4.18,16.83-6.32,27.12-4.84,3.72,1.44,3.72,1.44,5,4,.41,3.67.38,5.43-1.7,8.54-7.25,7.74-21.42,9.7-31.42,12.52-17,3.89-17,3.89-31.88,11.94-.6,4.09-.32,5.53,2,9,6.31,1.16,13.18-.22,19.5-1a161.94,161.94,0,0,1,19.94-1.19h2.45A27.72,27.72,0,0,1,628,960c1.4,2.8,1.25,4.9,1,8-5.25,6.44-14.85,6.74-22.5,7.75-11.8,1.68-23.36,4-35,6.68-5.93,1.34-11.85,2.67-17.83,3.73l-2.8.51c-1.66.29-3.32.57-5,.82-5.09.91-7.83,2.33-10.92,6.51a57.87,57.87,0,0,0-1.15,12.8v2c0,2.15,0,4.31,0,6.47,0,1.53,0,3.06,0,4.59,0,3.22,0,6.45,0,9.67s0,6.48,0,9.72c-.07,18.69.25,37.22,1.68,55.87s1.67,37.26,1.57,55.93l0,11q0,15.55-.11,31.11c-.12,29-.12,57.93,2.1,86.9l.27,3.62c.66,8.67,1.41,17.32,2.3,26l.28,2.73.54,5A143.23,143.23,0,0,1,543,1333H464c-.61-4.26-1.15-8.31-1.45-12.57l-.22-3.17-.23-3.39c-.08-1.18-.17-2.36-.25-3.57q-.27-3.77-.52-7.53l-.81-11.73q-1.09-15.8-2.16-31.59c-.08-1.28-.17-2.56-.26-3.89l-.42-6.47q-.49-7.66-1.36-15.29c-2.26-20.41-3.32-40.93-4.56-61.41-.39-6.47-.79-13-1.24-19.41-2.73-40.25-2.79-80.5-2.77-120.82v-6.45c0-54.47,0-54.47.64-76.83,0-1.19.06-2.38.09-3.61.51-14.73,2.41-27.33,13.56-37.79A206.88,206.88,0,0,1,499,883l2.55-1.41C531.43,865.59,570.49,858.88,604.08,858.7Z" transform="translate(-53.6 -549.08)"/><path class="b" d="M879,564c13.1,9.5,20.45,24.09,28,38a117.56,117.56,0,0,0,14-13.6c2.91-3.23,5.9-6.34,9-9.4l2.33-2.43c7.4-7.29,15-11.09,24.67-14.57l2.84-1c21-6.55,49.59-7.4,69.66,2.21,5.82,3.13,9.82,6.34,13.5,11.81l1.64,2.41c7.52,11.79,10.53,25.18,7.64,39-5.88,20-18.77,35.09-33.28,49.55l-2.29,2.36c-8.22,8.41-17.22,15.57-26.59,22.64l-1.85,1.4C977.38,700.54,966,708,954.69,715.56L951,718l-9,6,1.52,1c5.15,3.81,5.15,3.81,6.06,7.09a55,55,0,0,1-.14,6.79l-.1,2.37c-.08,1.92-.21,3.83-.34,5.75l3.73-1.28,4.89-1.66,2.45-.84c7.81-2.63,16.84-5.32,24.81-2,3.85,3.29,5,5.67,5.56,10.75-.21,4.36-1.53,6.72-4.44,10.06-2.91,2.47-5.91,4.77-9,7l1.39,1.25c5.9,5.55,9.72,10.58,10.11,18.87-.19,4.64-1.5,7.28-4.5,10.88l-1.75,2.38L981,804l3-1c6-.58,9.26.4,14,4a11.8,11.8,0,0,1,.38,8.31C997,817,997,817,994.88,817.75a58.45,58.45,0,0,1-7,.13c-3.78-.25-3.78-.25-5.88,1.62l-1,1.5,2.56,2.62c1.94,2.39,2.42,3.22,2.82,6.38-3.4,7.42-14.52,11.45-21.44,15.19l-3.13,1.69c-9.36,5-18.93,9.46-28.62,13.78L928,863l-2.29,1A30.46,30.46,0,0,0,915,872l-2.68,2.89-2.63,2.92-2.68,3L905,883c7.31-.39,13.39-3.6,19.94-6.69l1.86-.87c20.68-9.71,43.31-21.16,60.55-36.32,2.65-2.12,2.65-2.12,5.9-2.06C996,838,996,838,998,840c.23,2.61.33,5.11.34,7.73l0,2.36c0,1.66,0,3.33,0,5,0,2.49,0,5,.08,7.46.12,16.88-2.52,31.87-14.39,44.71-24.92,28.24-26.35,77.58-26.14,113.29,0,2.28,0,4.55,0,6.82l0,9.71q0,12.65.06,25.28v2.5q0,18.39-.65,36.75c-.86,23.55,1.25,46.56,4.48,69.88,2.78,20.31,3.44,40.53,3.52,61,0,3.55.05,7.1.07,10.66q.07,10,.12,20,.06,11.44.14,22.88.15,23.48.27,46.94H953c-1.13-11.53-1.18-23-1.23-34.6l-.06-11q-.11-15.57-.19-31.14,0-9.57-.12-19.13c0-2.4,0-4.8,0-7.21a409.66,409.66,0,0,0-3.64-55.46c-4.71-33.85-4.4-67.65-4.2-101.75q0-9.82.05-19.65,0-12,0-23.95c0-2.25,0-4.49,0-6.74,0-20.77.61-41.11,5-61.47l.79-3.68c4-18.4,8.23-36.34,18.59-52.26l1-3,2.75-2.19c7.84-6.3,11-16.14,12.25-25.81q.11-3.69.06-7.38l0-3.77,0-2.85c-5.07,1.73-9.4,4.58-13.94,7.38C914.78,900.93,914.78,900.93,896,898c-3.24-1.31-4.62-2.56-6.88-5.19A13.51,13.51,0,0,1,889,882a113.45,113.45,0,0,1,8-11l-2.85-.08c-12.68-.58-12.68-.58-17.15-4.92-2.13-2.59-2-4.16-2.12-7.56,1.51-9.38,9.62-16.37,16.82-21.78L894,835l4-3a44.68,44.68,0,0,0-9.12,1.75c-1.88.25-1.88.25-4.38-.69A18.7,18.7,0,0,1,878,823c-.43-6.08,1.19-10.23,5-15l2.06-2.88c3.11-3.68,7.07-6.21,11-8.9C902.92,791,908,784.68,913,777.75l1.86-2.54c4.29-5.94,8.36-11.93,12.14-18.21l1.68-2.64c3-4.73,5.13-8.89,6.32-14.36-6.48,2.66-12,5-16,11a27.48,27.48,0,0,1-4.12,1.81,43.94,43.94,0,0,0-11.06,6.82,13.23,13.23,0,0,1-3.93,2.3c-2.39,1.35-2.7,2.62-3.89,5.07q-1.29,1.77-2.68,3.46l-1.57,1.93-1.63,2A157,157,0,0,0,880,788l-3.35,4.71c-3.62,5.16-6.9,10.48-10.09,15.91l-1.71,2.91c-4.65,8-9,16.06-12.85,24.47l-1,2.1q-1.45,3.25-2.85,6.52l-.85,1.92c-5.54,13.4-5.83,26.9-6,41.15,0,2.12-.07,4.25-.11,6.38-.18,11.73-.28,23.46-.38,35.19q-.07,10.69-.19,21.39-.06,6.63-.1,13.26c-.23,42.36-3.66,84.38-7.53,126.55q-6,65.43-11.08,131l-1.14,14.47c-3.07,38.94-3.07,38.94-5.28,77.93A186.6,186.6,0,0,1,814,1333H801c-.11-11,.17-21.9.8-32.86l.13-2.38c1.06-19.06,2.56-38.07,4.1-57.09q.48-5.88,1-11.75l2.25-27.88q1-12.54,2-25.08,1.47-18.36,3-36.71l.25-3c2-25.24,4.28-50.44,6.91-75.63,4.12-39.82,5-79.34,5.24-119.35q.06-9.33.14-18.67.1-13.59.2-27.19l0-2.8q0-7.3,0-14.61c.23-22.52,9-42.26,19-62l-2.86-1.31c-4.59-2.47-6.52-5.82-8.14-10.69-.82-13.76.44-24.74,9-36l1.88-2.69C853.09,757.46,862.33,754,872,750l-3-2.38L866,745v-2l-3-1a31.42,31.42,0,0,1-3.06-3.38c-2.74-3.24-5.58-6.35-8.5-9.43-33.36-36.62-52-83.48-50.61-133,.73-13.56,6.11-28.84,15.57-38.83C835.38,540.87,860.39,552.14,879,564Zm-55.2,5c-13.42,23.75-12,49.28-4.95,75.16A194.74,194.74,0,0,0,864,723l3.56,4.12c10,11.87,10,11.87,24,17.19L894,744l.44-3.81A12.35,12.35,0,0,1,896,736a22,22,0,0,1,6.52-2.23c3.26-1,5.73-2.81,8.48-4.77,1.56-1.07,3.13-2.15,4.7-3.21l2.63-1.82c8.37-5.73,16.78-11.4,25.29-16.91l2.54-1.64,4.74-3.06c55.17-35,55.17-35,88.7-88.84,1.82-11.48,0-22-6.8-31.48-6.35-7.21-15.44-10.81-24.8-12-23-1.24-48.3-.21-66.43,15.69a214.92,214.92,0,0,0-22.2,23.55c-3.56,4.15-6.94,6.31-12.43,7.32-4.11-.78-6.31-2.44-8.94-5.56-3.44-5.09-6.52-10.37-9.53-15.72A60.53,60.53,0,0,0,864,571l-2.5-1.4C849.56,563.29,833.58,555.78,823.8,569ZM960.38,756.88a52.36,52.36,0,0,1-15,4c-3.34.42-4.91.71-7.45,2.94-3,3.7-3,3.7-3.93,8.18a153,153,0,0,0,20.56-7.38l2.67-1.13A156.89,156.89,0,0,0,974,755v-1C968.87,753.64,965,754.93,960.38,756.88ZM857.29,771.46a35.9,35.9,0,0,0-9.79,23.92c.19,4.63.93,7.77,3.5,11.62a131.25,131.25,0,0,0,8.44-11.62c4.62-7,9.34-13.94,14.09-20.86Q877.82,768.3,882,762C873.22,762,863.92,765.81,857.29,771.46Zm96.83,6.73L951,780a52.41,52.41,0,0,0-8,7c-2.21,1.73-4.52,3.28-6.88,4.81L934.35,793c-4.34,2.84-7.26,3.17-12.35,3a14.53,14.53,0,0,0-4.44,2l-2.06,1.12L914,800v2l-2.12.5c-5,2.63-7.92,7.41-10.26,12.5l-.62,2c13.23-2,25.78-7.13,37.5-13.44,5.55-3,9.74-4.11,16-3.6,4.36.07,7.72-1.87,11.45-4l2.3-1.2c4.39-2.37,4.39-2.37,6.7-6.61V786l-2.19-1.75L970,782l-2.69-2.06C965,778,965,778,963,775,959.18,775,957.41,776.27,954.12,778.19Zm-30,53.19C912.38,837.27,900.86,845.24,892,855v2c13.57-.36,21.39-2.13,31.41-11.58,7-6.55,14.71-12.35,22.35-18.15A59.15,59.15,0,0,0,952,822C943.72,819.24,931.49,827.78,924.11,831.38Z" transform="translate(-53.6 -549.08)"/><path class="d" d="M1825,584a10.82,10.82,0,0,1,4.44,7.56c-.65,5.09-3.46,8.38-6.44,12.44l-2,3,2,2.1a137.47,137.47,0,0,1,16.86,21.65,40,40,0,0,0,3.87,5.56C1845,638,1845,638,1845,640l2.2-.14c6.32-.24,10-.14,14.8,4.14,1.41,2.83,1.32,4.87,1,8a10.12,10.12,0,0,1-4,3h-3l1.25,2c6.86,10.89,13.7,21.74,20,33,3.44,5.91,7.36,11.53,11.23,17.16,1.84,2.87,2.66,4.28,2,7.69C1889,717,1889,717,1886,719a11.71,11.71,0,0,1-5,0c-6.47-5.14-10.81-13-15-20l-2.72-4.52q-3.08-5.1-6.12-10.22c-4.67-7.79-9.41-15.52-14.16-23.26-5.29.43-8.73,3.34-12.88,6.38l-2.27,1.63-6.85,5-2,1.43-9.16,6.73c-6.49,4.78-13,9.47-19.57,14.18L1779,704.5l-4.5,3.25-2.25,1.63-27,19.5-4.49,3.24-11.37,8.2L1716,750l-2.2,1.59-6.24,4.53-1.88,1.37c-1.57,1.15-3.13,2.33-4.68,3.51l-2,1.49c-1.28,1.53-1.28,1.53-.75,3.81a28.74,28.74,0,0,0,3.2,7.4l1.52,2.65,1.62,2.77,1.64,2.84c3.39,5.84,6.88,11.57,10.63,17.18C1718,801,1718,801,1718,803l1.62.75A44.21,44.21,0,0,1,1737,820c.55,3.82.19,4.71-2,8a23.51,23.51,0,0,1-15.12,0c-3.37-2.34-5.61-5.07-8.22-8.19A10.76,10.76,0,0,0,1705,816a35.26,35.26,0,0,0-6,0c.3,6.39,1.62,9.66,6.25,14.19l1.45,1.5c1.42,1.45,2.85,2.88,4.3,4.31,12.61,12.57,12.61,12.57,14,20h2l.76-2.09a76.12,76.12,0,0,1,5-9.53l1.18-2c4.85-7.95,10.14-15.59,15.47-23.22q2.05-3,4.1-5.93C1773.93,783.93,1799,759.7,1828,739l2.3-1.73c13.19-9.7,30.13-19.78,47.12-18,5.91,1.11,10.41,3.21,14.39,7.87,3,7.35,2.38,14.4.19,21.88l2.62-1c4.94-1.46,7.87-1.67,12.63.44,3.75,3.49,4.5,6.52,4.75,11.56-.58,6-3.41,11.58-6,17l2-.11c9.26-.28,9.26-.28,13,3.11,3.15,4.31,3.4,7.82,2.73,12.92-1.56,6.58-4.19,12.83-6.73,19.08l1.76.08c6.5.47,10.21,2.19,15.12,6.61,2.67,5.49,1.25,12-.61,17.59l-.77,2.16-.81,2.33A271.3,271.3,0,0,1,1921,866l-1,2.13A222.64,222.64,0,0,1,1905,895l-1.12,1.71c-6.74,10.24-14.75,20.5-25,27.4A10.58,10.58,0,0,0,1876,927a27.8,27.8,0,0,0,.61,7.7c.24,1.53.48,3.06.71,4.59l.37,2.38a86.56,86.56,0,0,1,.58,10.92v2.21c0,2.33,0,4.65,0,7,0,1.7,0,3.41,0,5.12l0,10.91q0,8.69.05,17.37.08,18.48.11,36.94,0,19.89.12,39.77,0,7.18,0,14.39c0,40.75,3,80.34,10.18,120.5.2,1.1.39,2.21.6,3.34l.6,3.35c2.88,16.19,5.23,32.36,7,48.72l.3,2.84q.95,9,1.7,18l.21,2.48c.2,2.36.37,4.71.54,7.07l.17,2.11c.23,3.66.25,6.3-1.92,9.34-2.84,1.42-4.85,1.31-8,1a12.18,12.18,0,0,1-5-7q-.15-3.18-.24-6.35c-.72-26.46-5.08-52.62-9.57-78.65q-2.1-12.3-4-24.62c-.25-1.59-.51-3.18-.77-4.77-4.92-30.29-5.51-60.38-5.57-91q0-8.65,0-17.3-.09-24.58-.15-49.15,0-13.64-.09-27.26,0-7.17,0-14.35,0-8,0-16l0-2.52c-.09-10.85-.59-21.46-2.62-32.16-1.06-5.93-.38-9.35,2.22-14.83a16,16,0,0,1,3.26-3.49l1.88-1.68,2-1.71q2.06-1.83,4.09-3.69l2-1.79c22-20.07,34.36-51,43.8-78.64v-2c-10.18.45-19.12,6.82-26,14-2.33,2.75-4.6,5.54-6.84,8.36a91,91,0,0,1-7.49,8c-1.79,1.79-3.41,3.67-5.05,5.61-10.09,11.56-10.09,11.56-16.43,12.81-3.71-.87-5.15-1.52-7.19-4.75-.44-6.29,4.19-10.5,8-15l2.59-3.15A176.22,176.22,0,0,1,1884,829.56c12.27-10.66,21.35-23.93,26-39.56-12.48,4.39-19.49,10.84-27.61,21.07a261.55,261.55,0,0,1-19.56,21.07c-1.86,1.89-3.6,3.85-5.33,5.86-10.4,12-10.4,12-15.5,14-3.38-.18-6-.41-8.94-2.12-1.79-3.17-1.52-5.27-1.06-8.88,2.69-7.23,7-13.17,12-19l2-2.4c9.61-11,20.28-19.7,32.15-28.15,6.59-5.17,10-12.2,13.82-19.45l3-5.38c.67-1.2,1.33-2.41,2-3.62-11.24,5.17-22,10.77-30.73,19.79C1865,784,1865,784,1863,784l-.61,1.61c-2,3.45-4.78,5.94-7.64,8.7a140.81,140.81,0,0,0-10.44,11L1842,808h-2l-.72,1.7a30.76,30.76,0,0,1-5.78,7l-2.41,2.42C1829,821,1829,821,1827,821v2c-1.65,1.5-3.38,2.92-5.12,4.31-3.16,2.51-6.25,5-9.19,7.75-2.69,1.94-2.69,1.94-5.81,2.44A11.49,11.49,0,0,1,1800,834c0-5.07,1-7.39,4.56-11,2-1.82,3.94-3.58,6-5.3,6.7-5.7,12.85-12,19.06-18.18l5.86-5.85c5.52-5.52,11-11,16.08-17,2-2.36,4.15-4.61,6.28-6.87,14.83-14.37,14.83-14.37,21.48-33L1879,734c-11.29-2.9-24.34,4.52-34,10-5.89,3.68-11.45,7.82-17,12l-3.5,2.57A228.48,228.48,0,0,0,1802,778l-1.84,1.77c-9.05,8.7-9.05,8.7-16.9,18.47a59.55,59.55,0,0,1-4.38,5.26c-15.87,18-29.72,39.29-40.88,60.5l-1.58,2.79c-5,9.55-4.52,19.28-1.58,29.5.61,1.92,1.22,3.84,1.86,5.75,1.19,3.58,2.31,7.17,3.43,10.76l.72,2.27a605.94,605.94,0,0,1,15.59,59.55l.67,3.22c4.32,22.21,5.38,44.49,5.22,67.06,0,2.15,0,4.29,0,6.44-.2,57.06-2.8,114-5.73,171q-.64,12.66-1.26,25.33l-.1,2.07c-1.33,27.75-1.56,55.46-1.21,83.24h-14c-.37-39.94.25-79.6,2.57-119.49.67-11.51,1.26-23,1.86-34.54q.36-6.72.73-13.44c1.22-23.11,2-46.17,2-69.31v-3.68q0-9.6,0-19.21,0-9.78.06-19.56,0-7.65,0-15.31c0-2.41,0-4.81,0-7.21a283.88,283.88,0,0,0-13.18-88.3c-2.93-9.31-5.69-18.67-8.48-28l-3.12-10.41-.69-2.34c-1-3.19-1.93-6.34-3-9.49-1.11-3.53-1.08-6.69-1-10.39l0-3.95A16,16,0,0,1,1719,872l-2.88-.81C1713,870,1713,870,1711,867c0-1.72.18-3.43.35-5.14.08-4.63-.55-6.87-3.6-10.37q-2.12-2.13-4.31-4.18l-4.26-4.2-2.11-2.05c-6.78-6.75-12.2-13-13.13-22.94a20.67,20.67,0,0,1,5.18-13.56,24.79,24.79,0,0,1,7.56-2.66l2.45-.52L1701,801a472.24,472.24,0,0,0-51.17-76.63,55.35,55.35,0,0,1-4.95-7.87l-1.51-2.78c-2.59-5.14-3.91-8.88-3.37-14.72a7.68,7.68,0,0,1,3-3h2l-.21-2.64c-.73-16,7.78-26.64,17.59-38.55L1665,652h2v-2a32.52,32.52,0,0,1,3.38-3.06c3.22-2.74,6.38-5.52,9.5-8.38,4.89-4.4,9.89-8.57,15.12-12.56l1.81-1.39c22.94-17.49,52.59-38.28,82.72-37.57l4.4.07q3.4,0,6.82.14c9.47.23,17.29-.3,26.31-3.48A12,12,0,0,1,1825,584Zm-71,22-2.23.93C1734,614.49,1718,624.87,1703,637l-2.82,2.23c-6.47,5.2-12.66,10.68-18.7,16.38-1.44,1.36-2.91,2.7-4.37,4A86.21,86.21,0,0,0,1660,682v3c22.54-.47,42.46-12.14,61.31-23.4l8.75-5.18A687.92,687.92,0,0,0,1795,613l-2-1.77c-2.7-3-2.67-5.33-3-9.23-2.39-2.39-8.84-1.37-12.17-1.38C1769.19,600.78,1761.94,602.7,1754,606Zm55.06,17.44-2.59.24a19.16,19.16,0,0,0-10.74,4.38l-2.48,1.9-2.63,2a273.44,273.44,0,0,1-22.89,15.93l-5.55,3.48c-8.76,5.55-17.64,10.88-26.6,16.09-3,1.73-5.94,3.48-8.91,5.22C1702.21,687,1681.27,695.83,1653,699c1.2,10.11,8.67,18,14.58,26,4.24,5.73,8.36,11.53,12.45,17.37,2.28,3.24,4.56,6.48,7,9.63,5.44-.38,9-3.59,13.19-6.75l4.86-3.58,2.49-1.86c3.78-2.78,7.59-5.51,11.4-8.25q9.36-6.75,18.62-13.62,9.92-7.34,20-14.4c5.36-3.77,10.64-7.64,15.91-11.54q9-6.64,18.06-13.06,21.5-15.11,42.44-30.94a36.09,36.09,0,0,0-5.94-10.44A68.61,68.61,0,0,1,1821,626C1817.11,622.36,1814.11,622.94,1809.06,623.44Z" transform="translate(-53.6 -549.08)"/><path class="e" d="M293.16,588.05c6.41,5,9.79,12.54,10.84,20.45.31,6-.59,12.45-4.42,17.29-1.58,1.21-1.58,1.21-4.64,1C292,626,292,626,290,624c.2-1.84.42-3.68.7-5.51a86.8,86.8,0,0,0,.55-8.68l.08-3A13.86,13.86,0,0,0,288,599c-5.57-1.71-8.94-.67-14,2a26.54,26.54,0,0,0-4,3l1.93.84,2.51,1.1,2.49,1.09c2.07,1,2.07,1,3.07,2a31.64,31.64,0,0,1,0,6c-3,3-5.82,2.6-10,3l1.34,1.07c11.53,9.19,21.59,18.24,30.66,29.93l2,2.29a47.08,47.08,0,0,1,5.61,11l.91,2.16A73.25,73.25,0,0,1,311,717c-1.3,3-2.65,5.93-4.14,8.83-1.18,2.29-1.18,2.29.14,5.17,5.77-.53,10.2-2.22,15.44-4.62a184.53,184.53,0,0,1,23.06-8.26l3-.86c14.07-4,29.8-7.58,43.72-1.43C394,717,394,717,396,720c.68,5,.48,7.93-2.38,12.12-6.56,7.64-16.43,11.33-25.5,15.19l-6.62,2.88-3.3,1.43c-17.12,7.19-17.12,7.19-33.2,16.38l.48,3.29c2.34,18.92-.19,36.59-5.48,54.71l1.65-.44c8.29-2,15.68-3.07,23.35,1.44,3.86,4.16,4.49,7.78,4.73,13.24.66,6.74,3,13.17,5,19.59,10.85,34.22,15.52,66.49,11,102.17l-.38,3q-.37,2.94-.76,5.88l-.33,2.72-.31,2.4c0,3,2,4,4,6-.4,5.92-1.42,11.74-2.34,17.59-2.86,18.58-4.22,37.23-5.61,56-2.37,31.86-5.06,63.59-9.59,95.23l-1.53,10.81c-.19,1.36-.38,2.71-.58,4.07l-.29,2.08c-.49,3.5-1,7-1.48,10.51l-.3,2.13-1.5,10.56c-6.72,47.34-10,94.29-11.78,142.06H322c-.31-23.73.55-47.31,2-71l.23-3.74c1-15.74,3-31.27,5.28-46.87.71-4.94,1.38-9.88,2.05-14.83.24-1.77.49-3.55.73-5.33q.72-5.26,1.42-10.53c.24-1.79.49-3.59.73-5.39l.37-2.77q1-7.14,2.09-14.27c5.61-35.49,8.46-71.31,11.13-107.11,1.29-17.38,2.79-34.71,5-52l.25-2.08c.22-1.79.45-3.57.68-5.36.33-2.94.33-2.94-1.94-5.72-1.37-5.44-.67-9.86.34-15.33,8.3-45.4-1.85-86.61-16.62-129.57q-.87-2.55-1.72-5.1a33.09,33.09,0,0,0-23,11c-2,2.86-4,5.79-5.85,8.75-2.15,3.25-4.45,6.3-6.84,9.37a53.46,53.46,0,0,0-6.87,11.32c-2.05,4.44-4.28,6.21-8.53,8.5-3.53,2-6,4.94-8.53,8-11.93,14.14-27.43,23.76-46.13,25.36-23.49.69-45.94-9-62.95-25-21.18-21.4-28.47-52.18-28.49-81.45,0-1.23,0-2.46,0-3.73A145.24,145.24,0,0,1,139,783l-13.44,4.44-2,.67q-14.1,4.68-28,9.83C71,806.92,71,806.92,61,805a24.17,24.17,0,0,1-7-5c-.71-7.12-.71-7.12,2.06-10.56L59,787l2.94-3.25c19-18.9,45.55-23,71.06-24.75l-2.77-2-3.61-2.7-1.82-1.34c-3.09-2.34-5.5-4.19-6.8-7.91h-2c-14.55-17-20.4-40.08-19-62,2-16,8-30.2,16-44l-1.79-.08C106,638.55,102.76,638,99,634c-3.42-5.31-2.55-12-2-18a23.34,23.34,0,0,1,11.25-14.25c8.43-2.3,15.5-1.86,23.75,1.25a60.22,60.22,0,0,1,6.87,4.89c3.1,1.61,4.8,1,8.13.11q3.39-1.62,6.69-3.44A50,50,0,0,1,172,599l5.5-1.06C203.87,593.68,235,596.16,258,611l-.21-1.91c-.38-6,.29-9.65,4.23-14.27C270.39,587.11,282.23,582.72,293.16,588.05ZM131.79,633.8C116.12,651.39,107.56,672.49,108,696c1.07,17.26,8.28,34.13,21,46h2v2c26.52,20.93,64.64,25.07,97.25,21.54A96.42,96.42,0,0,0,240,763l2.17-.59c15.45-4.29,31-11.18,41.83-23.41,1.17-2.87,1.17-2.87.81-5.5.19-2.5.19-2.5,1.81-4.12a29.76,29.76,0,0,1,5.33-2.6c6.83-4,9-13.73,10.93-21,3.72-18.32.34-35.16-9.88-50.75a80.9,80.9,0,0,0-14.39-14.55,17.48,17.48,0,0,1-3.36-3.79,43.27,43.27,0,0,0-9.5-8l-2.13-1.45c-19.29-12.79-40-19.67-63.31-19.55h-3.44C172.2,608.06,149,615.32,131.79,633.8ZM109,615c-1.31,3.92-1.2,6.86-1,11,2.71,2.71,4.34,2.43,8.12,2.56,6.11-.08,9.14-1.35,13.49-5.54a14.15,14.15,0,0,0,2.39-7c-4.4-3.61-7.88-4.16-13.5-4.25l-2.84-.08C112.54,612.06,111.23,612.83,109,615ZM360,726l-3.51.67a168.91,168.91,0,0,0-25.8,8.39l-3.35,1.32-3.14,1.28-2.82,1.14A14,14,0,0,0,316,743a10.17,10.17,0,0,0,.69,4.44l.57,2.31A38.58,38.58,0,0,0,320,756c4.36-.62,7.62-2.21,11.5-4.25,9.14-4.72,18.54-8.85,27.94-13,7.63-3.39,15.13-6.94,22.56-10.75v-2l2-1c-1.57-1.57-3.07-1.17-5.25-1.19A105.56,105.56,0,0,0,360,726Zm-62,13q-1.83,2.14-3.62,4.31C280,759.33,260.71,768.44,240,773l-2.21.5c-24.56,5.27-50.83,3.7-74.86-3.41A28.41,28.41,0,0,0,158,769c-3.37,2.25-3.53,2.79-4.57,6.51l-.78,2.74c-.25,1-.51,1.9-.77,2.87s-.53,1.86-.81,2.81c-7.71,27.71-3.31,61.43,10.74,86.57,11,18,27.88,29.51,48.07,34.81,14.66,3.25,28.22,2,41.16-6.18A122.07,122.07,0,0,0,266,886l1.65-1.61a87.3,87.3,0,0,0,17.17-22.7,57.92,57.92,0,0,1,10.05-13.34c14.22-15.68,20.36-39.25,20.25-60l0-2.26A36.12,36.12,0,0,0,314,776l-2.19.94A40.48,40.48,0,0,1,304,779c-1.93-2.7-3-4.32-3-7.69,1-2.31,1-2.31,3.38-3.5L307,767l3-2c-.56-9.69-4.07-19.07-11-26ZM139,762l-1,8-2.58-.14c-22.32-.67-47.37,5.37-64.06,20.82L70,792a11.72,11.72,0,0,0,8.19,0l2.56-.76,2.81-.88,3-.92c11.26-3.56,22.29-7.77,33.31-12,6.69-2.55,13.17-5,20.3-6,2.78-.64,4.21-2.18,5.86-4.43-.75-3.28-.75-3.28-4-5Z" transform="translate(-53.6 -549.08)"/><path class="f" d="M1555,698l2.69,2.1A205.5,205.5,0,0,1,1580,720l1.76,1.74c9.16,9.54,14.82,21.09,19,33.51l.81,2.34c5.31,16.59,7.39,34.21,9.69,51.41l.45,3.31c3.81,28.18,7.1,56.42,10.24,84.69l.29,2.64q2.34,21.06,4.63,42.12.48,4.5,1,9c4.56,41.58,7.52,83.16,9.83,124.92,1.41,25.54,3.51,50.92,6.27,76.34l.51,4.76q1.62,14.9,3.3,29.79.64,5.71,1.28,11.44l2,17.74.24,2.12q.76,6.89,1.55,13.76c1.36,12.06,2.66,24.11,3.64,36.2l.18,2.16c1.73,21,3,42,4.32,63h-14l-.36-5.09c-3.62-50.37-8.11-100.59-14-150.76-4.36-37.31-7.63-74.57-9.88-112.08l-.16-2.68q-.8-13.37-1.56-26.71c-1.39-24.64-3.48-49.14-6.07-73.68l-.3-2.83q-2.42-22.93-5-45.86l-.36-3.28c-3.07-27.86-6.2-55.72-9.77-83.53l-.45-3.61c-3.52-46.55-3.52-46.55-24.17-86.89l-1-3a23.1,23.1,0,0,0-3.25-2.88,117.28,117.28,0,0,1-9.1-8.6c-17.49-18.11-38.9-33.24-64.9-34-15.72.54-27.84,6.26-38.75,17.44-3.5,4.21-5.63,7.23-6.75,12.62-1.25,3.38-1.25,3.38-4.13,4.94-3.12.44-3.12.44-5.37-.12-2.44-2-3-3.36-3.75-6.44.38-11.94,9.44-19.81,17.69-27.69C1486.85,662.05,1526.76,675.43,1555,698Z" transform="translate(-53.6 -549.08)"/><path class="g" d="M338,857l1,7a38.26,38.26,0,0,1-10.69,4.81c-11.1,3.58-20.43,9.88-27.19,19.44l-1.28,1.8c-6.13,8.93-13,20.44-13,31.51v2.32c.05,2.31.05,2.31,1.13,5.12l3.69.69,2.07.38c3.86-.12,6.16-2,8.85-4.67,1.84-2,3.65-4,5.45-6,8.38-9.14,18.65-20.24,31.65-21.68a37.78,37.78,0,0,1,7.29.3c2,2,2,2,2.25,5.5C349,907,349,907,347,909c-1.64.26-3.29.46-4.94.62C335,910.79,330.38,914.45,325,919l-1.73,1.43a11.68,11.68,0,0,0-4.08,6.45c-1.3,3.41-2.22,4.16-5,6.37C307.77,938.51,304.72,946,303,954c0,1.67,0,3.33,0,5,7.33-1.44,11.18-3.76,16.19-9.25C321,948,321,948,324.25,946.94A26.05,26.05,0,0,1,331,948c1.49,4.73,2.31,8,.88,12.81-3,5.16-3,5.16-5.88,7.19a13.8,13.8,0,0,1-6,0,11.17,11.17,0,0,1-3-3l-2.44,2.44c-3.86,3.2-7.61,3.87-12.56,3.56a24.56,24.56,0,0,1-11-6c-1.4-7.88.2-15.62,3-23l-3.06-.19c-4.61-.62-7.35-3-10.94-5.81-2.35,7.41-2.3,14.52-2.25,22.25l0,3.78c-.19,14.71-.19,14.71,5.27,28l3,2a19.37,19.37,0,0,1-.31,4.19A10.7,10.7,0,0,0,286,1001a49,49,0,0,0,6.28,5.3c1.72,1.7,1.72,1.7,1.84,5.58C293,1015,293,1015,291,1016c-2.33,0-4.67,0-7,0l-.69,2.94c-2.37,9.85-5.24,19.41-8.5,29-.51,1.52-1,3-1.54,4.57-4.21,12.52-8.56,25-12.9,37.46-10.15,29.17-19.19,58.34-27.24,88.16q-7.19,26.64-15.4,53c-2.14,6.88-4.11,13.77-5.84,20.76-.87,3.08-1.94,6-3.08,9-8.33,22.53-16.4,48.15-17.81,72.18H179a70.33,70.33,0,0,1,1.62-17.06l.54-2.59a349.26,349.26,0,0,1,11.5-42.31c2.06-6.07,3.76-12.25,5.49-18.42,1.59-5.59,3.34-11.1,5.21-16.6,4.21-12.36,7.79-24.86,11.26-37.45q2.59-9.39,5.22-18.77c.53-1.88.53-1.88,1.06-3.8q5-17.7,10.22-35.31l.79-2.63q1.82-6.15,3.67-12.29,1.44-4.8,2.82-9.62c3.49-12,7.55-23.67,11.86-35.38q2.85-7.74,5.66-15.5l1.1-3c5.29-14.57,10.23-29.21,14.48-44.13l.78-2.65c1.72-6.28,3.54-13.68.6-19.8a31.08,31.08,0,0,0-2.59-3.78c-3.52-5.15-3.87-10.53-4.41-16.58l-.27-2.57c-2.21-23.14,1-44.8,11.32-65.57,1-2.09,2-4.2,3-6.32A108.92,108.92,0,0,1,297,875l1.77-2.11c7.11-7.83,17.91-14.57,28.23-16.89l3.25-.81C333.39,855,335.21,855.61,338,857Z" transform="translate(-53.6 -549.08)"/><path class="h" d="M184,913c1,1,1,1,1.06,4.06L185,920l-2.93,1.47c-13.65,7-23.72,15.93-34.43,26.82l-1.9,1.93c-1.09,1.12-2.18,2.24-3.26,3.38s-2.3,2.29-3.48,3.4h-2v2a44.66,44.66,0,0,1-3.81,3.31A25.2,25.2,0,0,0,126,971q6.47-5.62,12.81-11.38c4.32-3.89,8.76-7.59,13.28-11.24q3.84-3.15,7.6-6.37c28.75-24.55,28.75-24.55,39.31-25,2.05,2.22,3,3.32,2.93,6.4-1.3,3.62-3.18,4.5-6.43,6.48A164.46,164.46,0,0,0,180,941l-2.39,1.86c-5.5,4.32-10.68,8.9-15.83,13.64-3.56,3.2-7.24,6.22-11,9.22-1.91,1.55-3.8,3.14-5.67,4.75C123.25,989.28,123.25,989.28,112,989c-3.06-1.06-3.06-1.06-5-3-1.46-4.83-.5-7.74,1.44-12.25,3-5.29,7.35-9.41,11.56-13.75,1.34-1.49,2.68-3,4-4.5l1.62-1.84A28.05,28.05,0,0,0,129,949h2l.81-1.94C133,945,133,945,136,944l.86-1.74c6.06-12,28.2-26.88,40.31-31C179.85,910.88,181.61,911.84,184,913Z" transform="translate(-53.6 -549.08)"/><path class="h" d="M679,971c2.35,2.57,3,4.1,3.06,7.56-1.9,4.36-6.17,6-10.36,7.93l-3.59,1.39-2,.78c-2.13.83-4.25,1.65-6.38,2.46l-4.44,1.73-9,3.48q-6,2.29-11.9,4.64l-6.81,2.65-3.08,1.22c-8.74,3.38-17.44,6.59-26.92,6.6l-3.46.06c-3.76-.59-5.43-1.92-8.16-4.5,1.19-5.51,2.57-8.23,7-12,4-2,9-1.2,13.23-.36,4.25.41,6.55-.25,10.5-1.78l1.91-.72c2-.78,4.08-1.59,6.11-2.39l4.25-1.64c12.64-4.87,25.19-10,37.69-15.18A23.24,23.24,0,0,1,679,971Z" transform="translate(-53.6 -549.08)"/><path class="d" d="M1845,692c5.16,5.86,5.35,9.61,5.27,17.32-.65,8.83-4.62,15.87-11.27,21.68-3.36,1.74-4.89,2.24-8.56,1.44-10.11-6-14.23-19.16-17.91-29.72A17.56,17.56,0,0,1,1813,694c4.58-5.29,7.55-6.27,14.27-6.86C1834.31,686.78,1839.41,687.32,1845,692Zm-16,9c-1.32,3.62-.68,5.67.75,9.19l1,2.67c1.07,2.47,1.07,2.47,4.2,3.14a28.29,28.29,0,0,0,2-13l-1-2Z" transform="translate(-53.6 -549.08)"/><path class="i" d="M1754,750c1.56,1.69,1.56,1.69,2,4-.43,5.43-.43,5.43-3,8-3.21,1.14-6.43,2.15-9.68,3.14-1.79.57-3.56,1.21-5.32,1.86l-1,2,1,2a35.73,35.73,0,0,0,8.88-4.62c3.82-2.44,6.53-3.19,11.12-2.38,2.31,2,2.85,3.45,3.62,6.38-1,4.23-4.18,6.17-7.62,8.62l-2.88,1.69c-2.44,1.19-2.44,1.19-3.12,4.31h2v2l3,1c.22,3.22.27,5.43-1.12,8.38-1.88,1.62-1.88,1.62-4.69,1.93-6.63-.64-11.28-6.11-15.47-10.94-4.89-6.41-9.52-13.3-9.84-21.56,2.85-7.14,7.81-10.7,14.67-13.81C1742.88,749.41,1747.35,748.42,1754,750Z" transform="translate(-53.6 -549.08)"/><path class="d" d="M1782,726a22.07,22.07,0,0,1,10,7c2.14,5,1.52,11.09-.19,16.12-2.26,5.35-5,8.83-10.12,11.82-4.66,1.34-7,1.2-11.69.06-3.94-2.4-5.85-4.52-7-9a37.25,37.25,0,0,1,6.39-23C1773.11,725.44,1777.19,725.11,1782,726Z" transform="translate(-53.6 -549.08)"/><path class="j" d="M209.44,697c2.56,1,2.56,1,4.18,4.19.47,1.26.93,2.54,1.38,3.81,1.41,3.34,2.43,5.51,5.19,7.88a14.37,14.37,0,0,0,6.87,1.18c3.58,0,5.05,0,7.94,1.94a32.71,32.71,0,0,1,0,7c-2.78,2.75-4.89,3.43-8.75,3.44A21.23,21.23,0,0,1,211,720h-3a33.09,33.09,0,0,0-3.81,5.19c-5.8,8.19-5.8,8.19-10.19,10.81a23.13,23.13,0,0,1-7-1,16.63,16.63,0,0,1-2-5,19.26,19.26,0,0,1,5.44-7.25c4.14-4.44,5.82-9.84,8-15.44C200.67,702.58,203.62,697,209.44,697Z" transform="translate(-53.6 -549.08)"/><path class="k" d="M1811,706c3.2,2.71,4.27,5.22,5,9.25.37,5.27-1.2,9.33-4,13.75a16,16,0,0,1-7.88,4.94c-4.11.08-6.55-.92-10.12-2.94-3.08-3.69-3.84-7.24-4-12,.85-4.81,2.21-8.72,5.94-12C1801.28,703.51,1805.18,703.62,1811,706Z" transform="translate(-53.6 -549.08)"/><path class="l" d="M267,675c1,1,1,1,1.25,3.88-.25,3.12-.25,3.12-1.31,5-3,1.74-5.54,1.42-8.94,1.12-3-2-3-2-3.88-4.38-.12-2.62-.12-2.62,1-4.87C259,672.1,262.46,672.73,267,675Z" transform="translate(-53.6 -549.08)"/><path class="m" d="M163.56,678.25C167,679,167,679,169,681a24.09,24.09,0,0,1,0,6c-2.85,2.85-5,2.86-9,3-2.5-1.56-2.5-1.56-4-4a13.76,13.76,0,0,1,1-6C160,678,160,678,163.56,678.25Z" transform="translate(-53.6 -549.08)"/><path class="n" d="M531,1025h1c1,12.16,1.12,24.24,1.06,36.44,0,1.9,0,3.81,0,5.72q0,6.91,0,13.84h-1v-29h-2C529.85,1042.94,530.31,1034,531,1025Z" transform="translate(-53.6 -549.08)"/><path class="o" d="M1017,648l1,4-1.57,1.36c-3.13,2.7-6.19,5.4-9.12,8.33A86.12,86.12,0,0,1,1000,668c-2.45,2.39-4.82,4.79-7.06,7.38L991,677a22.49,22.49,0,0,1-4-1l2.42-2c5.78-4.84,11.5-9.72,17.08-14.79l2.84-2.58A97.72,97.72,0,0,0,1017,648Z" transform="translate(-53.6 -549.08)"/><path class="p" d="M980,802l1,2,2,1-2,1c-5.52,2.72-5.52,2.72-10.87,5.76A17,17,0,0,1,964,814c0-2.26,0-2.26,1-5a54.61,54.61,0,0,1,7.56-3.81l2.16-1C976.47,803.48,978.23,802.74,980,802Z" transform="translate(-53.6 -549.08)"/><path class="q" d="M165,678l-4,1,.56,2.81C162,685,162,685,161,688h6v1a29.51,29.51,0,0,1-7,1c-2.5-1.56-2.5-1.56-4-4a13.76,13.76,0,0,1,1-6C160.23,677.85,161.28,677.8,165,678Z" transform="translate(-53.6 -549.08)"/><path class="r" d="M453,899l2,1-1.24,1.39-1.64,1.86-1.61,1.83A27.59,27.59,0,0,0,447,911h-2l-1,2-1-3a23.13,23.13,0,0,1,3.25-4l1.89-2.06Q450.54,901.44,453,899Z" transform="translate(-53.6 -549.08)"/><path class="s" d="M633,865c2,2,2,2,3,4l2,1c-4.51,1.09-9.72,2.14-14,0v-2l2.81-.38C630.14,867.18,630.14,867.18,633,865Z" transform="translate(-53.6 -549.08)"/><path class="t" d="M532,872l-3,1-1,2-3.44.44L521,876l-2,3-3-1v-3c1.91-.7,3.83-1.38,5.75-2.06l3.23-1.16C527.92,871,529.22,870.93,532,872Z" transform="translate(-53.6 -549.08)"/><path class="u" d="M477,711l2,1-5,5-2.56,2.62A50.87,50.87,0,0,1,465,725C467.52,719.06,471.9,714.79,477,711Z" transform="translate(-53.6 -549.08)"/><path class="v" d="M1778,625v3c-2,1.38-4,2.71-6,4l-2.25,2.25L1768,636c-2,0-2,0-5-1Z" transform="translate(-53.6 -549.08)"/><path class="w" d="M586,962h7c-1,2-1,2-2.93,2.82l-2.38.74-2.37.76c-2.09.61-4.19,1.17-6.32,1.68l2-3-1-2,6,1Z" transform="translate(-53.6 -549.08)"/><path class="x" d="M1103,709l2,1-6,5A18.35,18.35,0,0,1,1103,709Zm-5,6c0,3,0,3-1.31,4.61l-1.69,1.58-1.69,1.6L1092,724l-2-1c1-1.15,1.91-2.29,2.88-3.44l1.61-1.93A8.19,8.19,0,0,1,1098,715Z" transform="translate(-53.6 -549.08)"/><path class="y" d="M134,944l1,3-11,11-2-1c1.12-1.34,2.24-2.67,3.38-4l1.89-2.25L129,949h2l.94-1.94A8.19,8.19,0,0,1,134,944Z" transform="translate(-53.6 -549.08)"/><path class="z" d="M456,914l3,3,2-1a17,17,0,0,1-2,4,27.82,27.82,0,0,1-4,1l-1,2h-2A32,32,0,0,1,456,914Z" transform="translate(-53.6 -549.08)"/><path class="u" d="M1848,780l2,2-12,12-2-1,2.12-2.08,2.76-2.73,2.74-2.71A20,20,0,0,0,1848,780Z" transform="translate(-53.6 -549.08)"/><path class="aa" d="M550,904l3,1c-1,3-1,3-3.06,4.19L548,910l-2-2c-2.32-.4-4.66-.74-7-1v-1l1.9-.18,2.48-.26,2.46-.24A7,7,0,0,0,550,904Z" transform="translate(-53.6 -549.08)"/><path class="ab" d="M476,897c1,3.13.93,4,0,7h-8A48.86,48.86,0,0,1,476,897Z" transform="translate(-53.6 -549.08)"/><path class="ac" d="M1667,650l2,1-2,1Zm0,2a22.68,22.68,0,0,1-5.62,7.75l-1.92,1.86L1658,663c0-3.74.93-4.45,3.38-7.19l1.89-2.17C1665,652,1665,652,1667,652Z" transform="translate(-53.6 -549.08)"/><path class="ad" d="M981,821l1,3-2.19-.12A19.09,19.09,0,0,0,972,826c1-2.49,1.69-3.79,3.94-5.31C978,820,978,820,981,821Z" transform="translate(-53.6 -549.08)"/><path class="ae" d="M956,819v3c-3,.93-3.87,1-7,0-1.33-.34-2.66-.68-4-1C948.63,818.67,951.77,818.84,956,819Z" transform="translate(-53.6 -549.08)"/><path class="af" d="M144,955l2,1-10,10-1-3Z" transform="translate(-53.6 -549.08)"/><path class="ag" d="M968,826l2,2-10,6v-3a21.89,21.89,0,0,1,4-2.69l2.25-1.32Z" transform="translate(-53.6 -549.08)"/><path class="ah" d="M1144,776h2a22.07,22.07,0,0,1-4,9h-2A22.07,22.07,0,0,1,1144,776Z" transform="translate(-53.6 -549.08)"/><path class="ai" d="M1868,758l1,2a26.48,26.48,0,0,1-6,8l-3-1Z" transform="translate(-53.6 -549.08)"/><path class="aj" d="M462,1248v8h-2l-1,2v-9C461,1248,461,1248,462,1248Z" transform="translate(-53.6 -549.08)"/><path class="ak" d="M512,879v2a38.27,38.27,0,0,1-10,1C505.12,878.88,507.79,878.89,512,879Z" transform="translate(-53.6 -549.08)"/><path class="al" d="M988,838l3,1-6,7-2-1A19.36,19.36,0,0,1,988,838Z" transform="translate(-53.6 -549.08)"/><path class="am" d="M165,680l4,1v6l-2,1Z" transform="translate(-53.6 -549.08)"/><path class="an" d="M597.69,939.38,600,940v2a44.68,44.68,0,0,1-6,1l-2-2C595,939,595,939,597.69,939.38Z" transform="translate(-53.6 -549.08)"/><path class="ao" d="M967,808l2,1,1,3c-3,2-3,2-6,2a40.93,40.93,0,0,1,1-5Z" transform="translate(-53.6 -549.08)"/><path class="ap" d="M307,766l2,1c-3.61,4.69-3.61,4.69-5,6h-3a11.12,11.12,0,0,1,1-4A19.2,19.2,0,0,1,307,766Z" transform="translate(-53.6 -549.08)"/><path class="aq" d="M1457,687l4,1a28.87,28.87,0,0,1-10,6Z" transform="translate(-53.6 -549.08)"/><path class="ar" d="M564,924h1v10l-3-3a11.77,11.77,0,0,1,1-4Z" transform="translate(-53.6 -549.08)"/><path class="as" d="M1858,807l2,1v2c-5.29,4-5.29,4-9,4Z" transform="translate(-53.6 -549.08)"/><path class="at" d="M1191,983h1c.2,6,.2,6,0,8l-2,2C1188.69,989.06,1189.76,986.88,1191,983Z" transform="translate(-53.6 -549.08)"/><path class="au" d="M958,832l2,3c-5.75,3-5.75,3-8,3v-2C954,834.61,956,833.27,958,832Z" transform="translate(-53.6 -549.08)"/><path class="av" d="M907,785l2,3-7,6-2-1Z" transform="translate(-53.6 -549.08)"/><path class="aw" d="M1813,750l2,1-6,7-3-2Z" transform="translate(-53.6 -549.08)"/><path class="ax" d="M1036,568l5,4-1,3-2-1v-2h-2l-1-3Z" transform="translate(-53.6 -549.08)"/><path class="ay" d="M166,917l2,1c-4.39,4-4.39,4-6,5l-3-1Z" transform="translate(-53.6 -549.08)"/><path class="az" d="M491,887l2,1v3a30.72,30.72,0,0,1-5,1l-2-2A50.09,50.09,0,0,1,491,887Z" transform="translate(-53.6 -549.08)"/><path class="ba" d="M822,553l2,1-5,5-3-1Z" transform="translate(-53.6 -549.08)"/><path class="ba" d="M0,0" transform="translate(-53.6 -549.08)"/><path class="bb" d="M495,867l2,1Z" transform="translate(-53.6 -549.08)"/><path class="bc" d="M1713,827l2,1Z" transform="translate(-53.6 -549.08)"/><path class="bc" d="M0,0" transform="translate(-53.6 -549.08)"/><path class="bd" d="M277,605l2,1Z" transform="translate(-53.6 -549.08)"/><path class="be" d="M1018,574l2,1Z" transform="translate(-53.6 -549.08)"/><path class="be" d="M0,0" transform="translate(-53.6 -549.08)"/><path class="be" d="M0,0" transform="translate(-53.6 -549.08)"/><path class="be" d="M0,0" transform="translate(-53.6 -549.08)"/><path class="be" d="M0,0" transform="translate(-53.6 -549.08)"/><path class="be" d="M0,0" transform="translate(-53.6 -549.08)"/><path class="be" d="M0,0" transform="translate(-53.6 -549.08)"/><path class="be" d="M0,0" transform="translate(-53.6 -549.08)"/><path class="be" d="M0,0" transform="translate(-53.6 -549.08)"/><path class="be" d="M0,0" transform="translate(-53.6 -549.08)"/><path class="be" d="M0,0" transform="translate(-53.6 -549.08)"/><path class="be" d="M0,0" transform="translate(-53.6 -549.08)"/><path class="be" d="M0,0" transform="translate(-53.6 -549.08)"/><path class="be" d="M0,0" transform="translate(-53.6 -549.08)"/><path class="be" d="M0,0" transform="translate(-53.6 -549.08)"/><path class="be" d="M0,0" transform="translate(-53.6 -549.08)"/><path class="be" d="M0,0" transform="translate(-53.6 -549.08)"/><path class="be" d="M0,0" transform="translate(-53.6 -549.08)"/><path class="be" d="M0,0" transform="translate(-53.6 -549.08)"/><path class="be" d="M0,0" transform="translate(-53.6 -549.08)"/><path class="be" d="M0,0" transform="translate(-53.6 -549.08)"/><path class="be" d="M0,0" transform="translate(-53.6 -549.08)"/><path class="be" d="M0,0" transform="translate(-53.6 -549.08)"/><path class="be" d="M0,0" transform="translate(-53.6 -549.08)"/><path class="be" d="M0,0" transform="translate(-53.6 -549.08)"/><path class="be" d="M0,0" transform="translate(-53.6 -549.08)"/><path class="be" d="M0,0" transform="translate(-53.6 -549.08)"/><path class="be" d="M0,0" transform="translate(-53.6 -549.08)"/><path class="be" d="M0,0" transform="translate(-53.6 -549.08)"/><path class="be" d="M0,0" transform="translate(-53.6 -549.08)"/><path class="be" d="M0,0" transform="translate(-53.6 -549.08)"/><path class="be" d="M0,0" transform="translate(-53.6 -549.08)"/><path class="be" d="M0,0" transform="translate(-53.6 -549.08)"/><path class="be" d="M0,0" transform="translate(-53.6 -549.08)"/><path class="be" d="M0,0" transform="translate(-53.6 -549.08)"/><path class="be" d="M0,0" transform="translate(-53.6 -549.08)"/><path class="be" d="M0,0" transform="translate(-53.6 -549.08)"/><path class="be" d="M0,0" transform="translate(-53.6 -549.08)"/><path class="be" d="M0,0" transform="translate(-53.6 -549.08)"/><path class="be" d="M0,0" transform="translate(-53.6 -549.08)"/><path class="be" d="M0,0" transform="translate(-53.6 -549.08)"/><path class="be" d="M0,0" transform="translate(-53.6 -549.08)"/><path class="be" d="M0,0" transform="translate(-53.6 -549.08)"/><path class="be" d="M0,0" transform="translate(-53.6 -549.08)"/><path class="be" d="M0,0" transform="translate(-53.6 -549.08)"/><path class="be" d="M0,0" transform="translate(-53.6 -549.08)"/><path class="be" d="M0,0" transform="translate(-53.6 -549.08)"/><path class="be" d="M0,0" transform="translate(-53.6 -549.08)"/><path class="be" d="M0,0" transform="translate(-53.6 -549.08)"/><path class="be" d="M0,0" transform="translate(-53.6 -549.08)"/><path class="be" d="M0,0" transform="translate(-53.6 -549.08)"/><path class="be" d="M0,0" transform="translate(-53.6 -549.08)"/><path class="be" d="M0,0" transform="translate(-53.6 -549.08)"/><path class="be" d="M0,0" transform="translate(-53.6 -549.08)"/><path class="be" d="M0,0" transform="translate(-53.6 -549.08)"/><path class="be" d="M0,0" transform="translate(-53.6 -549.08)"/><path class="be" d="M0,0" transform="translate(-53.6 -549.08)"/><path class="be" d="M0,0" transform="translate(-53.6 -549.08)"/><path class="be" d="M0,0" transform="translate(-53.6 -549.08)"/><path class="be" d="M0,0" transform="translate(-53.6 -549.08)"/><path class="be" d="M0,0" transform="translate(-53.6 -549.08)"/><path class="be" d="M0,0" transform="translate(-53.6 -549.08)"/><path class="be" d="M0,0" transform="translate(-53.6 -549.08)"/><path class="be" d="M0,0" transform="translate(-53.6 -549.08)"/><path class="be" d="M0,0" transform="translate(-53.6 -549.08)"/><path class="be" d="M0,0" transform="translate(-53.6 -549.08)"/><path class="be" d="M0,0" transform="translate(-53.6 -549.08)"/><path class="be" d="M0,0" transform="translate(-53.6 -549.08)"/><path class="be" d="M0,0" transform="translate(-53.6 -549.08)"/><path class="be" d="M0,0" transform="translate(-53.6 -549.08)"/><path class="be" d="M0,0" transform="translate(-53.6 -549.08)"/><path class="be" d="M0,0" transform="translate(-53.6 -549.08)"/><path class="be" d="M0,0" transform="translate(-53.6 -549.08)"/><path class="be" d="M0,0" transform="translate(-53.6 -549.08)"/><path class="be" d="M0,0" transform="translate(-53.6 -549.08)"/><path class="be" d="M0,0" transform="translate(-53.6 -549.08)"/><path class="be" d="M0,0" transform="translate(-53.6 -549.08)"/><path class="be" d="M0,0" transform="translate(-53.6 -549.08)"/><path class="be" d="M0,0" transform="translate(-53.6 -549.08)"/><path class="be" d="M0,0" transform="translate(-53.6 -549.08)"/><path class="be" d="M0,0" transform="translate(-53.6 -549.08)"/><path class="be" d="M0,0" transform="translate(-53.6 -549.08)"/><path class="be" d="M0,0" transform="translate(-53.6 -549.08)"/><path class="be" d="M0,0" transform="translate(-53.6 -549.08)"/><path class="be" d="M0,0" transform="translate(-53.6 -549.08)"/><path class="be" d="M0,0" transform="translate(-53.6 -549.08)"/><path class="be" d="M0,0" transform="translate(-53.6 -549.08)"/><path class="be" d="M0,0" transform="translate(-53.6 -549.08)"/><path class="be" d="M0,0" transform="translate(-53.6 -549.08)"/><path class="be" d="M0,0" transform="translate(-53.6 -549.08)"/><path class="be" d="M0,0" transform="translate(-53.6 -549.08)"/><path class="be" d="M0,0" transform="translate(-53.6 -549.08)"/><path class="be" d="M0,0" transform="translate(-53.6 -549.08)"/><path class="be" d="M0,0" transform="translate(-53.6 -549.08)"/><path class="be" d="M0,0" transform="translate(-53.6 -549.08)"/><path class="be" d="M0,0" transform="translate(-53.6 -549.08)"/><path class="be" d="M0,0" transform="translate(-53.6 -549.08)"/><path class="be" d="M0,0" transform="translate(-53.6 -549.08)"/><path class="be" d="M0,0" transform="translate(-53.6 -549.08)"/><path class="be" d="M0,0" transform="translate(-53.6 -549.08)"/><path class="be" d="M0,0" transform="translate(-53.6 -549.08)"/><path class="be" d="M0,0" transform="translate(-53.6 -549.08)"/><path class="be" d="M0,0" transform="translate(-53.6 -549.08)"/><path class="be" d="M0,0" transform="translate(-53.6 -549.08)"/><path class="be" d="M0,0" transform="translate(-53.6 -549.08)"/><path class="be" d="M0,0" transform="translate(-53.6 -549.08)"/><path class="be" d="M0,0" transform="translate(-53.6 -549.08)"/><path class="be" d="M0,0" transform="translate(-53.6 -549.08)"/><path class="be" d="M0,0" transform="translate(-53.6 -549.08)"/><path class="be" d="M0,0" transform="translate(-53.6 -549.08)"/><path class="be" d="M0,0" transform="translate(-53.6 -549.08)"/><path class="be" d="M0,0" transform="translate(-53.6 -549.08)"/><path class="be" d="M0,0" transform="translate(-53.6 -549.08)"/><path class="be" d="M0,0" transform="translate(-53.6 -549.08)"/><path class="be" d="M0,0" transform="translate(-53.6 -549.08)"/><path class="be" d="M0,0" transform="translate(-53.6 -549.08)"/><path class="be" d="M0,0" transform="translate(-53.6 -549.08)"/><path class="be" d="M0,0" transform="translate(-53.6 -549.08)"/><path class="be" d="M0,0" transform="translate(-53.6 -549.08)"/><path class="be" d="M0,0" transform="translate(-53.6 -549.08)"/><path class="be" d="M0,0" transform="translate(-53.6 -549.08)"/><path class="be" d="M0,0" transform="translate(-53.6 -549.08)"/><path class="be" d="M0,0" transform="translate(-53.6 -549.08)"/><path class="be" d="M0,0" transform="translate(-53.6 -549.08)"/><path class="be" d="M0,0" transform="translate(-53.6 -549.08)"/><path class="be" d="M0,0" transform="translate(-53.6 -549.08)"/><path class="be" d="M0,0" transform="translate(-53.6 -549.08)"/><path class="be" d="M0,0" transform="translate(-53.6 -549.08)"/><path class="be" d="M0,0" transform="translate(-53.6 -549.08)"/><path class="be" d="M0,0" transform="translate(-53.6 -549.08)"/><path class="be" d="M0,0" transform="translate(-53.6 -549.08)"/><path class="be" d="M0,0" transform="translate(-53.6 -549.08)"/><path class="be" d="M0,0" transform="translate(-53.6 -549.08)"/><path class="be" d="M0,0" transform="translate(-53.6 -549.08)"/><path class="be" d="M0,0" transform="translate(-53.6 -549.08)"/><path class="be" d="M0,0" transform="translate(-53.6 -549.08)"/><path class="be" d="M0,0" transform="translate(-53.6 -549.08)"/><path class="be" d="M0,0" transform="translate(-53.6 -549.08)"/><path class="be" d="M0,0" transform="translate(-53.6 -549.08)"/><path class="be" d="M0,0" transform="translate(-53.6 -549.08)"/><path class="be" d="M0,0" transform="translate(-53.6 -549.08)"/><path class="be" d="M0,0" transform="translate(-53.6 -549.08)"/><path class="be" d="M0,0" transform="translate(-53.6 -549.08)"/><path class="be" d="M0,0" transform="translate(-53.6 -549.08)"/><path class="be" d="M0,0" transform="translate(-53.6 -549.08)"/><path class="be" d="M0,0" transform="translate(-53.6 -549.08)"/><path class="be" d="M0,0" transform="translate(-53.6 -549.08)"/><path class="be" d="M0,0" transform="translate(-53.6 -549.08)"/><path class="be" d="M0,0" transform="translate(-53.6 -549.08)"/><path class="be" d="M0,0" transform="translate(-53.6 -549.08)"/><path class="be" d="M0,0" transform="translate(-53.6 -549.08)"/><path class="be" d="M0,0" transform="translate(-53.6 -549.08)"/><path class="be" d="M0,0" transform="translate(-53.6 -549.08)"/><path class="be" d="M0,0" transform="translate(-53.6 -549.08)"/><path class="be" d="M0,0" transform="translate(-53.6 -549.08)"/><path class="be" d="M0,0" transform="translate(-53.6 -549.08)"/><path class="be" d="M0,0" transform="translate(-53.6 -549.08)"/><path class="be" d="M0,0" transform="translate(-53.6 -549.08)"/><path class="be" d="M0,0" transform="translate(-53.6 -549.08)"/><path class="be" d="M0,0" transform="translate(-53.6 -549.08)"/><path class="be" d="M0,0" transform="translate(-53.6 -549.08)"/><path class="be" d="M0,0" transform="translate(-53.6 -549.08)"/><path class="be" d="M0,0" transform="translate(-53.6 -549.08)"/><path class="be" d="M0,0" transform="translate(-53.6 -549.08)"/><path class="be" d="M0,0" transform="translate(-53.6 -549.08)"/><path class="be" d="M0,0" transform="translate(-53.6 -549.08)"/><path class="be" d="M0,0" transform="translate(-53.6 -549.08)"/><path class="be" d="M0,0" transform="translate(-53.6 -549.08)"/><path class="be" d="M0,0" transform="translate(-53.6 -549.08)"/><path class="be" d="M0,0" transform="translate(-53.6 -549.08)"/><path class="be" d="M0,0" transform="translate(-53.6 -549.08)"/><path class="be" d="M0,0" transform="translate(-53.6 -549.08)"/><path class="be" d="M0,0" transform="translate(-53.6 -549.08)"/><path class="be" d="M0,0" transform="translate(-53.6 -549.08)"/><path class="be" d="M0,0" transform="translate(-53.6 -549.08)"/><path class="be" d="M0,0" transform="translate(-53.6 -549.08)"/><path class="be" d="M0,0" transform="translate(-53.6 -549.08)"/><path class="be" d="M0,0" transform="translate(-53.6 -549.08)"/><path class="be" d="M0,0" transform="translate(-53.6 -549.08)"/><path class="be" d="M0,0" transform="translate(-53.6 -549.08)"/><path class="be" d="M0,0" transform="translate(-53.6 -549.08)"/><path class="be" d="M0,0" transform="translate(-53.6 -549.08)"/><path class="be" d="M0,0" transform="translate(-53.6 -549.08)"/><path class="be" d="M0,0" transform="translate(-53.6 -549.08)"/><path class="be" d="M0,0" transform="translate(-53.6 -549.08)"/><path class="be" d="M0,0" transform="translate(-53.6 -549.08)"/><path class="be" d="M0,0" transform="translate(-53.6 -549.08)"/><path class="be" d="M0,0" transform="translate(-53.6 -549.08)"/><path class="be" d="M0,0" transform="translate(-53.6 -549.08)"/><path class="be" d="M0,0" transform="translate(-53.6 -549.08)"/><path class="be" d="M0,0" transform="translate(-53.6 -549.08)"/><path class="be" d="M0,0" transform="translate(-53.6 -549.08)"/><path class="be" d="M0,0" transform="translate(-53.6 -549.08)"/><path class="be" d="M0,0" transform="translate(-53.6 -549.08)"/><path class="be" d="M0,0" transform="translate(-53.6 -549.08)"/><path class="be" d="M0,0" transform="translate(-53.6 -549.08)"/><path class="be" d="M0,0" transform="translate(-53.6 -549.08)"/><path class="be" d="M0,0" transform="translate(-53.6 -549.08)"/><path class="be" d="M0,0" transform="translate(-53.6 -549.08)"/><path class="be" d="M0,0" transform="translate(-53.6 -549.08)"/><path class="be" d="M0,0" transform="translate(-53.6 -549.08)"/><path class="be" d="M0,0" transform="translate(-53.6 -549.08)"/><path class="be" d="M0,0" transform="translate(-53.6 -549.08)"/><path class="be" d="M0,0" transform="translate(-53.6 -549.08)"/><path class="be" d="M0,0" transform="translate(-53.6 -549.08)"/><path class="be" d="M0,0" transform="translate(-53.6 -549.08)"/><path class="be" d="M0,0" transform="translate(-53.6 -549.08)"/><path class="be" d="M0,0" transform="translate(-53.6 -549.08)"/><path class="be" d="M0,0" transform="translate(-53.6 -549.08)"/><path class="be" d="M0,0" transform="translate(-53.6 -549.08)"/><path class="be" d="M0,0" transform="translate(-53.6 -549.08)"/><path class="be" d="M0,0" transform="translate(-53.6 -549.08)"/><path class="be" d="M0,0" transform="translate(-53.6 -549.08)"/><path class="be" d="M0,0" transform="translate(-53.6 -549.08)"/><path class="be" d="M0,0" transform="translate(-53.6 -549.08)"/><path class="be" d="M0,0" transform="translate(-53.6 -549.08)"/><path class="be" d="M0,0" transform="translate(-53.6 -549.08)"/><path class="be" d="M0,0" transform="translate(-53.6 -549.08)"/><path class="be" d="M0,0" transform="translate(-53.6 -549.08)"/><path class="be" d="M0,0" transform="translate(-53.6 -549.08)"/><path class="be" d="M0,0" transform="translate(-53.6 -549.08)"/><path class="be" d="M0,0" transform="translate(-53.6 -549.08)"/><path class="be" d="M0,0" transform="translate(-53.6 -549.08)"/><path class="be" d="M0,0" transform="translate(-53.6 -549.08)"/><path class="be" d="M0,0" transform="translate(-53.6 -549.08)"/><path class="be" d="M0,0" transform="translate(-53.6 -549.08)"/><path class="be" d="M0,0" transform="translate(-53.6 -549.08)"/><path class="be" d="M0,0" transform="translate(-53.6 -549.08)"/><path class="be" d="M0,0" transform="translate(-53.6 -549.08)"/><path class="be" d="M0,0" transform="translate(-53.6 -549.08)"/><path class="be" d="M0,0" transform="translate(-53.6 -549.08)"/><path class="be" d="M0,0" transform="translate(-53.6 -549.08)"/><path class="be" d="M0,0" transform="translate(-53.6 -549.08)"/><path class="be" d="M0,0" transform="translate(-53.6 -549.08)"/><path class="be" d="M0,0" transform="translate(-53.6 -549.08)"/><path class="be" d="M0,0" transform="translate(-53.6 -549.08)"/><path class="be" d="M0,0" transform="translate(-53.6 -549.08)"/><path class="be" d="M0,0" transform="translate(-53.6 -549.08)"/><path class="be" d="M0,0" transform="translate(-53.6 -549.08)"/><path class="be" d="M0,0" transform="translate(-53.6 -549.08)"/><path class="be" d="M0,0" transform="translate(-53.6 -549.08)"/><path class="be" d="M0,0" transform="translate(-53.6 -549.08)"/><path class="be" d="M0,0" transform="translate(-53.6 -549.08)"/><path class="be" d="M0,0" transform="translate(-53.6 -549.08)"/><path class="be" d="M0,0" transform="translate(-53.6 -549.08)"/><path class="be" d="M0,0" transform="translate(-53.6 -549.08)"/><path class="be" d="M0,0" transform="translate(-53.6 -549.08)"/><path class="be" d="M0,0" transform="translate(-53.6 -549.08)"/><path class="be" d="M0,0" transform="translate(-53.6 -549.08)"/><path class="be" d="M0,0" transform="translate(-53.6 -549.08)"/><path class="be" d="M0,0" transform="translate(-53.6 -549.08)"/><path class="be" d="M0,0" transform="translate(-53.6 -549.08)"/><path class="be" d="M0,0" transform="translate(-53.6 -549.08)"/><path class="be" d="M0,0" transform="translate(-53.6 -549.08)"/><path class="be" d="M0,0" transform="translate(-53.6 -549.08)"/><path class="be" d="M0,0" transform="translate(-53.6 -549.08)"/><path class="be" d="M0,0" transform="translate(-53.6 -549.08)"/><path class="be" d="M0,0" transform="translate(-53.6 -549.08)"/><path class="be" d="M0,0" transform="translate(-53.6 -549.08)"/><path class="be" d="M0,0" transform="translate(-53.6 -549.08)"/><path class="be" d="M0,0" transform="translate(-53.6 -549.08)"/><path class="be" d="M0,0" transform="translate(-53.6 -549.08)"/><path class="be" d="M0,0" transform="translate(-53.6 -549.08)"/><path class="be" d="M0,0" transform="translate(-53.6 -549.08)"/><path class="be" d="M0,0" transform="translate(-53.6 -549.08)"/><path class="be" d="M0,0" transform="translate(-53.6 -549.08)"/><path class="be" d="M0,0" transform="translate(-53.6 -549.08)"/><path class="be" d="M0,0" transform="translate(-53.6 -549.08)"/><path class="be" d="M0,0" transform="translate(-53.6 -549.08)"/><path class="be" d="M0,0" transform="translate(-53.6 -549.08)"/><path class="be" d="M0,0" transform="translate(-53.6 -549.08)"/><path class="be" d="M0,0" transform="translate(-53.6 -549.08)"/><path class="be" d="M0,0" transform="translate(-53.6 -549.08)"/><path class="be" d="M0,0" transform="translate(-53.6 -549.08)"/><path class="be" d="M0,0" transform="translate(-53.6 -549.08)"/><path class="be" d="M0,0" transform="translate(-53.6 -549.08)"/><path class="be" d="M0,0" transform="translate(-53.6 -549.08)"/><path class="be" d="M0,0" transform="translate(-53.6 -549.08)"/><path class="be" d="M0,0" transform="translate(-53.6 -549.08)"/><path class="be" d="M0,0" transform="translate(-53.6 -549.08)"/><path class="be" d="M0,0" transform="translate(-53.6 -549.08)"/><path class="be" d="M0,0" transform="translate(-53.6 -549.08)"/><path class="be" d="M0,0" transform="translate(-53.6 -549.08)"/><path class="be" d="M0,0" transform="translate(-53.6 -549.08)"/><path class="be" d="M0,0" transform="translate(-53.6 -549.08)"/><path class="be" d="M0,0" transform="translate(-53.6 -549.08)"/><path class="be" d="M0,0" transform="translate(-53.6 -549.08)"/><path class="be" d="M0,0" transform="translate(-53.6 -549.08)"/><path class="be" d="M0,0" transform="translate(-53.6 -549.08)"/><path class="be" d="M0,0" transform="translate(-53.6 -549.08)"/><path class="be" d="M0,0" transform="translate(-53.6 -549.08)"/><path class="be" d="M0,0" transform="translate(-53.6 -549.08)"/><path class="be" d="M0,0" transform="translate(-53.6 -549.08)"/><path class="be" d="M0,0" transform="translate(-53.6 -549.08)"/><path class="be" d="M0,0" transform="translate(-53.6 -549.08)"/><path class="be" d="M0,0" transform="translate(-53.6 -549.08)"/><path class="be" d="M0,0" transform="translate(-53.6 -549.08)"/><path class="be" d="M0,0" transform="translate(-53.6 -549.08)"/><path class="be" d="M0,0" transform="translate(-53.6 -549.08)"/><path class="be" d="M0,0" transform="translate(-53.6 -549.08)"/><path class="be" d="M0,0" transform="translate(-53.6 -549.08)"/><path class="be" d="M0,0" transform="translate(-53.6 -549.08)"/><path class="be" d="M0,0" transform="translate(-53.6 -549.08)"/><path class="be" d="M0,0" transform="translate(-53.6 -549.08)"/><path class="be" d="M0,0" transform="translate(-53.6 -549.08)"/><path class="be" d="M0,0" transform="translate(-53.6 -549.08)"/><path class="be" d="M0,0" transform="translate(-53.6 -549.08)"/><path class="be" d="M0,0" transform="translate(-53.6 -549.08)"/><path class="be" d="M0,0" transform="translate(-53.6 -549.08)"/><path class="be" d="M0,0" transform="translate(-53.6 -549.08)"/><path class="be" d="M0,0" transform="translate(-53.6 -549.08)"/><path class="be" d="M0,0" transform="translate(-53.6 -549.08)"/><path class="be" d="M0,0" transform="translate(-53.6 -549.08)"/><path class="be" d="M0,0" transform="translate(-53.6 -549.08)"/><path class="be" d="M0,0" transform="translate(-53.6 -549.08)"/><path class="be" d="M0,0" transform="translate(-53.6 -549.08)"/><path class="be" d="M0,0" transform="translate(-53.6 -549.08)"/><path class="be" d="M0,0" transform="translate(-53.6 -549.08)"/><path class="be" d="M0,0" transform="translate(-53.6 -549.08)"/><path class="be" d="M0,0" transform="translate(-53.6 -549.08)"/><path class="be" d="M0,0" transform="translate(-53.6 -549.08)"/><path class="be" d="M0,0" transform="translate(-53.6 -549.08)"/><path class="be" d="M0,0" transform="translate(-53.6 -549.08)"/><path class="be" d="M0,0" transform="translate(-53.6 -549.08)"/><path class="be" d="M0,0" transform="translate(-53.6 -549.08)"/><path class="be" d="M0,0" transform="translate(-53.6 -549.08)"/><path class="be" d="M0,0" transform="translate(-53.6 -549.08)"/><path class="be" d="M0,0" transform="translate(-53.6 -549.08)"/><path class="be" d="M0,0" transform="translate(-53.6 -549.08)"/><path class="be" d="M0,0" transform="translate(-53.6 -549.08)"/><path class="be" d="M0,0" transform="translate(-53.6 -549.08)"/><path class="be" d="M0,0" transform="translate(-53.6 -549.08)"/><path class="be" d="M0,0" transform="translate(-53.6 -549.08)"/><path class="be" d="M0,0" transform="translate(-53.6 -549.08)"/><path class="be" d="M0,0" transform="translate(-53.6 -549.08)"/><path class="be" d="M0,0" transform="translate(-53.6 -549.08)"/><path class="be" d="M0,0" transform="translate(-53.6 -549.08)"/><path class="be" d="M0,0" transform="translate(-53.6 -549.08)"/><path class="be" d="M0,0" transform="translate(-53.6 -549.08)"/><path class="be" d="M0,0" transform="translate(-53.6 -549.08)"/><path class="be" d="M0,0" transform="translate(-53.6 -549.08)"/><path class="be" d="M0,0" transform="translate(-53.6 -549.08)"/><path class="be" d="M0,0" transform="translate(-53.6 -549.08)"/><path class="be" d="M0,0" transform="translate(-53.6 -549.08)"/><path class="be" d="M0,0" transform="translate(-53.6 -549.08)"/><path class="be" d="M0,0" transform="translate(-53.6 -549.08)"/><path class="be" d="M0,0" transform="translate(-53.6 -549.08)"/><path class="be" d="M0,0" transform="translate(-53.6 -549.08)"/><path class="be" d="M0,0" transform="translate(-53.6 -549.08)"/><path class="be" d="M0,0" transform="translate(-53.6 -549.08)"/><path class="be" d="M0,0" transform="translate(-53.6 -549.08)"/><path class="be" d="M0,0" transform="translate(-53.6 -549.08)"/><path class="be" d="M0,0" transform="translate(-53.6 -549.08)"/><path class="be" d="M0,0" transform="translate(-53.6 -549.08)"/><path class="be" d="M0,0" transform="translate(-53.6 -549.08)"/><path class="be" d="M0,0" transform="translate(-53.6 -549.08)"/><path class="be" d="M0,0" transform="translate(-53.6 -549.08)"/><path class="be" d="M0,0" transform="translate(-53.6 -549.08)"/><path class="be" d="M0,0" transform="translate(-53.6 -549.08)"/><path class="be" d="M0,0" transform="translate(-53.6 -549.08)"/><path class="be" d="M0,0" transform="translate(-53.6 -549.08)"/><path class="be" d="M0,0" transform="translate(-53.6 -549.08)"/><path class="be" d="M0,0" transform="translate(-53.6 -549.08)"/><path class="be" d="M0,0" transform="translate(-53.6 -549.08)"/><path class="be" d="M0,0" transform="translate(-53.6 -549.08)"/><path class="be" d="M0,0" transform="translate(-53.6 -549.08)"/><path class="be" d="M0,0" transform="translate(-53.6 -549.08)"/><path class="be" d="M0,0" transform="translate(-53.6 -549.08)"/><path class="be" d="M0,0" transform="translate(-53.6 -549.08)"/><path class="be" d="M0,0" transform="translate(-53.6 -549.08)"/><path class="be" d="M0,0" transform="translate(-53.6 -549.08)"/><path class="be" d="M0,0" transform="translate(-53.6 -549.08)"/><path class="be" d="M0,0" transform="translate(-53.6 -549.08)"/><path class="be" d="M0,0" transform="translate(-53.6 -549.08)"/><path class="be" d="M0,0" transform="translate(-53.6 -549.08)"/><path class="be" d="M0,0" transform="translate(-53.6 -549.08)"/><path class="be" d="M0,0" transform="translate(-53.6 -549.08)"/><path class="be" d="M0,0" transform="translate(-53.6 -549.08)"/><path class="be" d="M0,0" transform="translate(-53.6 -549.08)"/><path class="be" d="M0,0" transform="translate(-53.6 -549.08)"/><path class="be" d="M0,0" transform="translate(-53.6 -549.08)"/><path class="be" d="M0,0" transform="translate(-53.6 -549.08)"/><path class="be" d="M0,0" transform="translate(-53.6 -549.08)"/><path class="be" d="M0,0" transform="translate(-53.6 -549.08)"/><path class="be" d="M0,0" transform="translate(-53.6 -549.08)"/><path class="be" d="M0,0" transform="translate(-53.6 -549.08)"/><path class="be" d="M0,0" transform="translate(-53.6 -549.08)"/><path class="be" d="M0,0" transform="translate(-53.6 -549.08)"/><path class="be" d="M0,0" transform="translate(-53.6 -549.08)"/><path class="be" d="M0,0" transform="translate(-53.6 -549.08)"/><path class="be" d="M0,0" transform="translate(-53.6 -549.08)"/><path class="be" d="M0,0" transform="translate(-53.6 -549.08)"/><path class="be" d="M0,0" transform="translate(-53.6 -549.08)"/><path class="be" d="M0,0" transform="translate(-53.6 -549.08)"/><path class="be" d="M0,0" transform="translate(-53.6 -549.08)"/><path class="be" d="M0,0" transform="translate(-53.6 -549.08)"/><path class="be" d="M0,0" transform="translate(-53.6 -549.08)"/><path class="be" d="M0,0" transform="translate(-53.6 -549.08)"/><path class="be" d="M0,0" transform="translate(-53.6 -549.08)"/><path class="be" d="M0,0" transform="translate(-53.6 -549.08)"/><path class="be" d="M0,0" transform="translate(-53.6 -549.08)"/><path class="be" d="M0,0" transform="translate(-53.6 -549.08)"/><path class="be" d="M0,0" transform="translate(-53.6 -549.08)"/><path class="be" d="M0,0" transform="translate(-53.6 -549.08)"/><path class="be" d="M0,0" transform="translate(-53.6 -549.08)"/><path class="be" d="M0,0" transform="translate(-53.6 -549.08)"/><path class="be" d="M0,0" transform="translate(-53.6 -549.08)"/><path class="be" d="M0,0" transform="translate(-53.6 -549.08)"/><path class="be" d="M0,0" transform="translate(-53.6 -549.08)"/><path class="be" d="M0,0" transform="translate(-53.6 -549.08)"/><path class="be" d="M0,0" transform="translate(-53.6 -549.08)"/><path class="be" d="M0,0" transform="translate(-53.6 -549.08)"/><path class="be" d="M0,0" transform="translate(-53.6 -549.08)"/><path class="be" d="M0,0" transform="translate(-53.6 -549.08)"/><path class="be" d="M0,0" transform="translate(-53.6 -549.08)"/><path class="be" d="M0,0" transform="translate(-53.6 -549.08)"/><path class="be" d="M0,0" transform="translate(-53.6 -549.08)"/><path class="be" d="M0,0" transform="translate(-53.6 -549.08)"/><path class="be" d="M0,0" transform="translate(-53.6 -549.08)"/><path class="be" d="M0,0" transform="translate(-53.6 -549.08)"/><path class="be" d="M0,0" transform="translate(-53.6 -549.08)"/><path class="be" d="M0,0" transform="translate(-53.6 -549.08)"/><path class="be" d="M0,0" transform="translate(-53.6 -549.08)"/><path class="be" d="M0,0" transform="translate(-53.6 -549.08)"/><path class="be" d="M0,0" transform="translate(-53.6 -549.08)"/><path class="be" d="M0,0" transform="translate(-53.6 -549.08)"/><path class="be" d="M0,0" transform="translate(-53.6 -549.08)"/><path class="be" d="M0,0" transform="translate(-53.6 -549.08)"/><path class="be" d="M0,0" transform="translate(-53.6 -549.08)"/><path class="be" d="M0,0" transform="translate(-53.6 -549.08)"/><path class="be" d="M0,0" transform="translate(-53.6 -549.08)"/><path class="be" d="M0,0" transform="translate(-53.6 -549.08)"/><path class="be" d="M0,0" transform="translate(-53.6 -549.08)"/><path class="be" d="M0,0" transform="translate(-53.6 -549.08)"/><path class="be" d="M0,0" transform="translate(-53.6 -549.08)"/><path class="be" d="M0,0" transform="translate(-53.6 -549.08)"/><path class="be" d="M0,0" transform="translate(-53.6 -549.08)"/><path class="be" d="M0,0" transform="translate(-53.6 -549.08)"/><path class="be" d="M0,0" transform="translate(-53.6 -549.08)"/><path class="be" d="M0,0" transform="translate(-53.6 -549.08)"/><path class="be" d="M0,0" transform="translate(-53.6 -549.08)"/><path class="be" d="M0,0" transform="translate(-53.6 -549.08)"/><path class="be" d="M0,0" transform="translate(-53.6 -549.08)"/><path class="be" d="M0,0" transform="translate(-53.6 -549.08)"/><path class="be" d="M0,0" transform="translate(-53.6 -549.08)"/><path class="be" d="M0,0" transform="translate(-53.6 -549.08)"/><path class="be" d="M0,0" transform="translate(-53.6 -549.08)"/><path class="be" d="M0,0" transform="translate(-53.6 -549.08)"/><path class="be" d="M0,0" transform="translate(-53.6 -549.08)"/><path class="be" d="M0,0" transform="translate(-53.6 -549.08)"/><path class="be" d="M0,0" transform="translate(-53.6 -549.08)"/><path class="be" d="M0,0" transform="translate(-53.6 -549.08)"/><path class="be" d="M0,0" transform="translate(-53.6 -549.08)"/><path class="be" d="M0,0" transform="translate(-53.6 -549.08)"/><path class="be" d="M0,0" transform="translate(-53.6 -549.08)"/><path class="be" d="M0,0" transform="translate(-53.6 -549.08)"/><path class="be" d="M0,0" transform="translate(-53.6 -549.08)"/><path class="be" d="M0,0" transform="translate(-53.6 -549.08)"/><path class="be" d="M0,0" transform="translate(-53.6 -549.08)"/><path class="be" d="M0,0" transform="translate(-53.6 -549.08)"/><path class="be" d="M0,0" transform="translate(-53.6 -549.08)"/><path class="be" d="M0,0" transform="translate(-53.6 -549.08)"/><path class="be" d="M0,0" transform="translate(-53.6 -549.08)"/><path class="be" d="M0,0" transform="translate(-53.6 -549.08)"/><path class="be" d="M0,0" transform="translate(-53.6 -549.08)"/><path class="be" d="M0,0" transform="translate(-53.6 -549.08)"/><path class="be" d="M0,0" transform="translate(-53.6 -549.08)"/><path class="be" d="M0,0" transform="translate(-53.6 -549.08)"/><path class="be" d="M0,0" transform="translate(-53.6 -549.08)"/><path class="be" d="M0,0" transform="translate(-53.6 -549.08)"/><path class="be" d="M0,0" transform="translate(-53.6 -549.08)"/><path class="be" d="M0,0" transform="translate(-53.6 -549.08)"/><path class="be" d="M0,0" transform="translate(-53.6 -549.08)"/><path class="be" d="M0,0" transform="translate(-53.6 -549.08)"/><path class="be" d="M0,0" transform="translate(-53.6 -549.08)"/><path class="be" d="M0,0" transform="translate(-53.6 -549.08)"/><path class="be" d="M0,0" transform="translate(-53.6 -549.08)"/><path class="be" d="M0,0" transform="translate(-53.6 -549.08)"/><path class="be" d="M0,0" transform="translate(-53.6 -549.08)"/><path class="be" d="M0,0" transform="translate(-53.6 -549.08)"/><path class="be" d="M0,0" transform="translate(-53.6 -549.08)"/><path class="be" d="M0,0" transform="translate(-53.6 -549.08)"/><path class="be" d="M0,0" transform="translate(-53.6 -549.08)"/><path class="be" d="M0,0" transform="translate(-53.6 -549.08)"/><path class="be" d="M0,0" transform="translate(-53.6 -549.08)"/><path class="be" d="M0,0" transform="translate(-53.6 -549.08)"/><path class="be" d="M0,0" transform="translate(-53.6 -549.08)"/><path class="be" d="M0,0" transform="translate(-53.6 -549.08)"/><path class="be" d="M0,0" transform="translate(-53.6 -549.08)"/><path class="be" d="M0,0" transform="translate(-53.6 -549.08)"/><path class="be" d="M0,0" transform="translate(-53.6 -549.08)"/><path class="be" d="M0,0" transform="translate(-53.6 -549.08)"/><path class="be" d="M0,0" transform="translate(-53.6 -549.08)"/><path class="be" d="M0,0" transform="translate(-53.6 -549.08)"/><path class="be" d="M0,0" transform="translate(-53.6 -549.08)"/><path class="be" d="M0,0" transform="translate(-53.6 -549.08)"/><path class="be" d="M0,0" transform="translate(-53.6 -549.08)"/><path class="be" d="M0,0" transform="translate(-53.6 -549.08)"/><path class="be" d="M0,0" transform="translate(-53.6 -549.08)"/><path class="be" d="M0,0" transform="translate(-53.6 -549.08)"/><path class="be" d="M0,0" transform="translate(-53.6 -549.08)"/></svg>